<svg viewBox="0 0 1431 400" xmlns="http://www.w3.org/2000/svg"><g><g><g><g><g><line x1="46" y1="350.4837302918484" x2="41" y2="350.4837302918484" style="visibility: inherit;" fill="rgb(0, 0, 0)" stroke="rgb(204, 204, 204)" stroke-width="1px"></line><line x1="46" y1="302.5521637034552" x2="41" y2="302.5521637034552" style="visibility: inherit;" fill="rgb(0, 0, 0)" stroke="rgb(204, 204, 204)" stroke-width="1px"></line><line x1="46" y1="254.62059711506208" x2="41" y2="254.62059711506208" style="visibility: inherit;" fill="rgb(0, 0, 0)" stroke="rgb(204, 204, 204)" stroke-width="1px"></line><line x1="46" y1="206.68903052666892" x2="41" y2="206.68903052666892" style="visibility: inherit;" fill="rgb(0, 0, 0)" stroke="rgb(204, 204, 204)" stroke-width="1px"></line><line x1="46" y1="158.75746393827578" x2="41" y2="158.75746393827578" style="visibility: inherit;" fill="rgb(0, 0, 0)" stroke="rgb(204, 204, 204)" stroke-width="1px"></line><line x1="46" y1="110.82589734988261" x2="41" y2="110.82589734988261" style="visibility: inherit;" fill="rgb(0, 0, 0)" stroke="rgb(204, 204, 204)" stroke-width="1px"></line><line x1="46" y1="62.89433076148947" x2="41" y2="62.89433076148947" style="visibility: inherit;" fill="rgb(0, 0, 0)" stroke="rgb(204, 204, 204)" stroke-width="1px"></line><line x1="46" y1="14.962764173096275" x2="41" y2="14.962764173096275" style="visibility: inherit;" fill="rgb(0, 0, 0)" stroke="rgb(204, 204, 204)" stroke-width="1px"></line></g><g transform="translate(36, 0)"><text x="0" y="350.4837302918484" dx="0em" dy="0.3em" style="text-anchor: end; visibility: inherit; font-family: &quot;Helvetica Neue&quot;, sans-serif; font-size: 12px; font-weight: 200;" fill="rgb(50, 49, 63)" stroke="none" stroke-width="1px">-20</text><text x="0" y="302.5521637034552" dx="0em" dy="0.3em" style="text-anchor: end; visibility: inherit; font-family: &quot;Helvetica Neue&quot;, sans-serif; font-size: 12px; font-weight: 200;" fill="rgb(50, 49, 63)" stroke="none" stroke-width="1px">-15</text><text x="0" y="254.62059711506208" dx="0em" dy="0.3em" style="text-anchor: end; visibility: inherit; font-family: &quot;Helvetica Neue&quot;, sans-serif; font-size: 12px; font-weight: 200;" fill="rgb(50, 49, 63)" stroke="none" stroke-width="1px">-10</text><text x="0" y="206.68903052666892" dx="0em" dy="0.3em" style="text-anchor: end; visibility: inherit; font-family: &quot;Helvetica Neue&quot;, sans-serif; font-size: 12px; font-weight: 200;" fill="rgb(50, 49, 63)" stroke="none" stroke-width="1px">-5</text><text x="0" y="158.75746393827578" dx="0em" dy="0.3em" style="text-anchor: end; visibility: inherit; font-family: &quot;Helvetica Neue&quot;, sans-serif; font-size: 12px; font-weight: 200;" fill="rgb(50, 49, 63)" stroke="none" stroke-width="1px">0</text><text x="0" y="110.82589734988261" dx="0em" dy="0.3em" style="text-anchor: end; visibility: inherit; font-family: &quot;Helvetica Neue&quot;, sans-serif; font-size: 12px; font-weight: 200;" fill="rgb(50, 49, 63)" stroke="none" stroke-width="1px">5</text><text x="0" y="62.89433076148947" dx="0em" dy="0.3em" style="text-anchor: end; visibility: inherit; font-family: &quot;Helvetica Neue&quot;, sans-serif; font-size: 12px; font-weight: 200;" fill="rgb(50, 49, 63)" stroke="none" stroke-width="1px">10</text><text x="0" y="14.962764173096275" dx="0em" dy="0.3em" style="text-anchor: end; visibility: inherit; font-family: &quot;Helvetica Neue&quot;, sans-serif; font-size: 12px; font-weight: 200;" fill="rgb(50, 49, 63)" stroke="none" stroke-width="1px">15</text></g><line x1="46" y1="0" x2="46" y2="378" fill="rgb(0, 0, 0)" stroke="rgb(204, 204, 204)" stroke-width="1px"></line></g></g><g transform="translate(46, 0)" clip-path="url(#clip_0)"><clipPath id="clip_0"><rect width="1385" height="378"></rect></clipPath><g><g><g><line x1="12.288827370812049" y1="0" x2="12.288827370812049" y2="378" fill="rgb(0, 0, 0)" stroke="rgb(60, 60, 60)" stroke-width="1px" opacity="0.25"></line><line x1="148.44903463940943" y1="0" x2="148.44903463940943" y2="378" fill="rgb(0, 0, 0)" stroke="rgb(60, 60, 60)" stroke-width="1px" opacity="0.25"></line><line x1="284.6092419080068" y1="0" x2="284.6092419080068" y2="378" fill="rgb(0, 0, 0)" stroke="rgb(60, 60, 60)" stroke-width="1px" opacity="0.25"></line><line x1="420.7694491766042" y1="0" x2="420.7694491766042" y2="378" fill="rgb(0, 0, 0)" stroke="rgb(60, 60, 60)" stroke-width="1px" opacity="0.25"></line><line x1="556.9296564452017" y1="0" x2="556.9296564452017" y2="378" fill="rgb(0, 0, 0)" stroke="rgb(60, 60, 60)" stroke-width="1px" opacity="0.25"></line><line x1="693.0898637137991" y1="0" x2="693.0898637137991" y2="378" fill="rgb(0, 0, 0)" stroke="rgb(60, 60, 60)" stroke-width="1px" opacity="0.25"></line><line x1="829.2500709823964" y1="0" x2="829.2500709823964" y2="378" fill="rgb(0, 0, 0)" stroke="rgb(60, 60, 60)" stroke-width="1px" opacity="0.25"></line><line x1="965.4102782509938" y1="0" x2="965.4102782509938" y2="378" fill="rgb(0, 0, 0)" stroke="rgb(60, 60, 60)" stroke-width="1px" opacity="0.25"></line><line x1="1101.570485519591" y1="0" x2="1101.570485519591" y2="378" fill="rgb(0, 0, 0)" stroke="rgb(60, 60, 60)" stroke-width="1px" opacity="0.25"></line><line x1="1237.7306927881884" y1="0" x2="1237.7306927881884" y2="378" fill="rgb(0, 0, 0)" stroke="rgb(60, 60, 60)" stroke-width="1px" opacity="0.25"></line><line x1="1373.890900056786" y1="0" x2="1373.890900056786" y2="378" fill="rgb(0, 0, 0)" stroke="rgb(60, 60, 60)" stroke-width="1px" opacity="0.25"></line></g><g><line x1="0" y1="350.4837302918484" x2="1385" y2="350.4837302918484" fill="rgb(0, 0, 0)" stroke="rgb(60, 60, 60)" stroke-width="1px" opacity="0.25"></line><line x1="0" y1="302.5521637034552" x2="1385" y2="302.5521637034552" fill="rgb(0, 0, 0)" stroke="rgb(60, 60, 60)" stroke-width="1px" opacity="0.25"></line><line x1="0" y1="254.62059711506208" x2="1385" y2="254.62059711506208" fill="rgb(0, 0, 0)" stroke="rgb(60, 60, 60)" stroke-width="1px" opacity="0.25"></line><line x1="0" y1="206.68903052666892" x2="1385" y2="206.68903052666892" fill="rgb(0, 0, 0)" stroke="rgb(60, 60, 60)" stroke-width="1px" opacity="0.25"></line><line x1="0" y1="158.75746393827578" x2="1385" y2="158.75746393827578" fill="rgb(0, 0, 0)" stroke="rgb(60, 60, 60)" stroke-width="1px" opacity="0.25"></line><line x1="0" y1="110.82589734988261" x2="1385" y2="110.82589734988261" fill="rgb(0, 0, 0)" stroke="rgb(60, 60, 60)" stroke-width="1px" opacity="0.25"></line><line x1="0" y1="62.89433076148947" x2="1385" y2="62.89433076148947" fill="rgb(0, 0, 0)" stroke="rgb(60, 60, 60)" stroke-width="1px" opacity="0.25"></line><line x1="0" y1="14.962764173096275" x2="1385" y2="14.962764173096275" fill="rgb(0, 0, 0)" stroke="rgb(60, 60, 60)" stroke-width="1px" opacity="0.25"></line></g></g></g><g><g><line x1="0" y1="158.75746393827578" x2="1385" y2="158.75746393827578" fill="rgb(0, 0, 0)" stroke="rgb(153, 153, 153)" stroke-width="1.5px"></line></g></g><g><g><line x1="12.288827370812049" y1="0" x2="12.288827370812049" y2="378" fill="rgb(0, 0, 0)" stroke="rgb(153, 153, 153)" stroke-width="1.5px"></line></g></g><g><g><g><g><g><path stroke="rgb(255, 112, 67)" stroke-width="2px" d="M12.302443391538908,25.35113366378789L14.998415495457138,336.55828128470466L16.34640154741625,294.84146840512375L17.694387599375364,268.42186733707814L19.04237365133448,253.01866975980732L20.390359703293594,280.2092343079248L21.738345755252706,252.58939678213898L23.086331807211824,261.6599882822635L24.434317859170935,231.39068945750662L25.78230391113005,252.98307909423258L27.13028996308916,225.4675131677822L28.47827601504828,230.53078588238105L29.82626206700739,222.04480283353925L32.52223417092562,250.09652344103193L33.87022022288473,220.07586102426475L35.21820627484385,211.24549508899383L36.56619232680296,198.7873633780443L37.91417837876208,223.15449930758578L39.26216443072119,264.31663536678343L39.53448484525839,217.1130775340329L40.8824708972175,218.85559396075152L42.23045694917661,238.96518395035832L43.578443001135724,204.79824556301443L44.926429053094836,212.6331744997984L46.27441510505396,254.3386967366912L47.62240115701307,225.6383447056527L48.970387208972184,206.42823039390467L50.318373260931295,206.43485393287435L51.666359312890414,228.15862185360805L53.014345364849525,222.36042429333125L54.36233141680864,223.0229793191556L55.71031746876776,215.32433346783867L57.058303520726874,222.72709134296062L58.406289572685985,216.90037462489795L59.754275624645096,214.57150358272378L61.10226167660421,213.96722107227922L62.45024772856332,236.6402623475698L63.79823378052244,197.29248685724824L65.14621983248156,193.11535132036082L66.49420588444067,223.86908271198348L66.76652629897787,240.08472202509614L68.11451235093698,231.16655877237153L69.46249840289609,249.61509409369899L70.8104844548552,219.00556752186662L72.15847050681431,222.6191857108571L73.50645655877344,222.9512220280957L74.85444261073255,220.4331938664572L76.20242866269166,215.533955448564L77.55041471465078,185.27005510518956L78.8984007666099,195.55185144245928L80.24638681856901,218.7391952055247L81.59437287052812,219.26069490662442L82.94235892248723,208.22735545181743L84.29034497444634,214.85295142116505L85.63833102640547,207.37068822285508L86.98631707836458,249.56295600847608L88.33430313032368,219.57528786657645L89.6822891822828,205.3066901728116L91.03027523424193,220.82386381679717L92.37826128620102,213.6629771062729L93.72624733816015,213.162819919631L93.99856775269734,233.81663260013616L95.34655380465645,202.5892427488607L96.69453985661556,211.3289269960155L98.04252590857469,195.77072763618952L99.39051196053379,180.77719982963652L100.73849801249291,216.14484778464706L102.08648406445204,237.9817004055675L103.43447011641113,208.59102842413475L104.78245616837026,205.67394232457215L106.13044222032936,221.51459516712745L107.47842827228848,187.41414129499705L108.82641432424758,215.92152161494235L110.1744003762067,199.38410355632877L111.52238642816583,202.81346485620378L112.87037248012493,224.62449984558478L114.21835853208405,214.52716381184334L115.56634458404316,212.82495086552194L116.91433063600228,228.1740904912018L118.26231668796139,194.00269070010748L119.61030273992051,212.3187552420416L120.95828879187962,213.87298763138224L121.23060920641682,212.6034485688669L122.57859525837594,212.4363013459788L123.92658131033504,202.3560704073543L125.27456736229416,211.38538935167685L126.62255341425326,234.02097951945987L127.97053946621239,200.4228975369602L129.3185255181715,206.04714606207358L130.6665115701306,201.93517627504923L132.01449762208975,210.08963039990684L133.36248367404883,210.9066295328176L134.71046972600797,211.60750874823594L136.05845577796705,220.89620620998832L137.4064418299262,189.6933220815675L138.75442788188528,219.04614983999824L140.10241393384442,205.66933921639932L141.45039998580353,212.91400066722525L142.79838603776264,182.9997902694544L144.14637208972175,201.70379580881965L145.49435814168086,201.64315545825264L148.19033024559909,197.61398219390432L148.4626506601363,212.7893601999472L149.8106367120954,205.439709485453L151.1586227640545,217.18932822661608L152.50660881601365,192.96154716873045L153.85459486797274,187.30905375245518L155.20258091993188,192.43511981061945L156.55056697189096,213.68610235378674L157.8985530238501,209.48249551657264L159.2465390758092,203.37800613283036L160.59452512776832,194.02463203002768L161.94251117972743,218.05409546320732L163.29049723168654,218.11471752933275L164.63848328364566,207.34949655504047L165.98646933560477,198.77133249387134L167.3344553875639,203.55163976137612L168.682441439523,176.10295717952158L170.03042749148213,201.75480482977378L171.37841354344124,185.88235077216538L172.72639959540035,213.5846145606849L174.07438564735943,180.07777651288058L175.42237169931857,179.41023669116495L175.69469211385575,184.78588994828218L177.0426781658149,192.04838558633392L178.390664217774,198.42755299401503L179.7386502697331,183.43026087804756L181.0866363216922,195.05144741585576L182.43462237365134,186.3723166681704L183.78260842561045,196.58243799436738L185.1305944775696,202.88507130062052L186.4785805295287,195.79282666941853L187.82656658148778,206.7951625679372L189.1745526334469,197.25550657411185L190.52253868540603,199.15241225459204L191.87052473736514,191.31402298723523L193.21851078932426,191.5960239300349L194.56649684128334,223.98969603099908L195.91448289324248,188.88590399605525L197.2624689452016,171.34793843752746L198.61045499716073,187.11177834092035L199.9584410491198,201.92938924928276L201.30642710107892,187.81233986416592L202.65441315303804,189.72965098147185L202.92673356757524,188.13556079499799L204.27471961953435,184.5239584656939L205.6227056714935,200.28506484506758L206.9706917234526,193.85976579122922L208.3186777754117,187.4133047817938L209.6666638273708,198.0435980048527L211.01464987932994,172.6958491878516L212.36263593128905,185.50611638846874L213.7106219832482,192.54342770043817L215.05860803520727,187.48858411341698L216.40659408716638,202.1214764505135L217.7545801391255,191.61313588181747L219.10256619108463,215.6505096215444L220.45055224304372,180.53532866503883L221.79853829500283,192.31521501371586L223.14652434696197,189.31842017655248L224.49451039892108,175.57118505057537L225.8424964508802,179.7689568653638L227.19048250283927,192.28283555319712L228.5384685547984,190.65983995010856L229.88645460675752,194.55225701906346L230.1587750212947,200.94786213974314L231.50676107325384,184.2458063978511L232.85474712521295,190.0094075090651L234.2027331771721,192.46370524950615L235.55071922913118,189.72104586614378L236.8987052810903,186.36096888660228L238.2466913330494,181.5698829407742L239.59467738500854,223.3728063980712L240.94266343696762,187.30232964905667L242.29064948892673,177.27347799132875L243.63863554088587,184.88115188901918L244.98662159284498,187.20235260794206L246.3346076448041,186.3441312014437L247.68259369676318,183.80269895455697L249.03057974872232,181.03736229249995L250.37856580068143,193.47025461737564L251.72655185264057,181.93521522616672L253.07453790459968,195.81260357856434L254.42252395655876,176.92139621220832L255.77051000851787,200.76032319336042L257.118496060477,189.44686609323855L257.3908164750142,171.64130087522648L258.7388025269733,173.20861692530966L260.08678857893244,187.71061208776806L261.4347746308915,173.02095455894616L262.78276068285066,173.59882405072165L264.13074673480975,187.0379686212908L265.4787327867689,188.2923453106092L266.826718838728,191.88750078469388L268.1747048906871,194.78343864199064L269.5226909426462,182.7193503608563L270.87067699460533,183.50473112312994L272.2186630465645,182.65218017908282L273.5666490985236,187.52750254736299L274.9146351504827,190.00294167340425L276.2626212024418,188.0506455626515L277.6106072544009,180.56744528670956L278.95859330636006,187.98311654871165L280.30657935831914,193.46392134391638L281.6545654102782,178.16425256054106L283.00255146223736,175.76561151755337L284.3505375141965,184.1098341478913L284.62285792873365,192.0746077611438L285.9708439806928,181.45627027733624L287.31883003265193,185.89707431876397L288.666816084611,194.3584945058711L290.0148021365701,186.32160019828186L291.36278818852924,181.26011021673904L292.7107742404884,193.8218004338016L294.0587602924475,180.0641134638948L295.4067463444066,196.48578643606882L296.7547323963657,175.94428593809278L298.1027184483248,163.07089970229418L299.45070450028396,183.6367105081553L300.79869055224304,171.48992969710653L302.1466766042021,178.17152519718752L303.49466265616127,170.7959642861682L304.8426487081204,175.50582502852032L306.1906347600795,180.08617135713024L307.5386208120386,176.2115027670811L308.8866068639977,186.11275759187976L310.23459291595685,181.57732927961587L311.582578967916,188.5107918199618L311.85489938245314,182.57980121700848L313.2028854344123,175.49889522515386L314.5508714863714,186.28917274110393L315.8988575383305,175.25540360191934L317.2468435902896,198.3247852900012L318.5948296422487,196.67553094321954L319.94281569420787,191.53381111749027L321.29080174616695,178.1120024831133L322.63878779812603,184.216919265678L323.98677385008517,218.15783681373637L325.3347599020443,182.67201651266384L326.6827459540034,197.92165906382107L328.03073200596253,186.02378549905325L329.3787180579216,181.8674165167132L330.72670410988076,179.03791060686035L332.0746901618399,186.5007648704117L333.422676213799,186.66253646746935L334.77066226575806,182.177561786246L336.1186483177172,172.31693384790535L337.46663436967634,184.8336146264139L338.8146204216354,187.45905016912226L339.08694083617263,184.36834872545555L340.43492688813177,176.58870165507216L343.13089899204994,182.28067918020542L344.4788850440091,180.94989180943986L345.8268710959682,172.88155740451913L347.1748571479273,179.5733293391282L349.8708292518455,179.62743300182314L351.2188153038046,167.22211018654775L352.5668013557638,176.5446875758077L353.9147874077229,176.43421412243697L355.262773459682,200.56966217857448L356.6107595116411,174.87699679800508L357.9587455636002,182.21708589232L359.30673161555933,196.2015730758355L360.6547176675184,170.9315697045184L362.0027037194776,185.99205513621132L363.3506897714367,186.96675986347887L364.6986758233958,195.2708675717236L366.31898228989206,186.22939861595773L367.66696834185126,174.42415631789166L369.01495439381034,182.44730986761834L370.3629404457695,180.83816472904192L371.71092649772856,176.27669937193937L373.05891254968765,179.65317749559622L374.4068986016468,179.84153467074054L375.75488465360587,197.77673657969797L377.10287070556507,169.5681263210549L378.45085675752415,169.15200099967467L379.79884280948323,198.92211514152726L381.1468288614424,182.41157521206597L382.49481491340146,169.53896492225783L385.19078701731974,177.0186088743085L386.5387730692788,186.15217427685934L387.88675912123796,182.07349131576814L389.23474517319704,172.6157850464172L390.5827312251561,181.3155806414436L391.93071727711526,178.61961286526247L393.27870332907435,183.11535022592275L393.5510237436116,166.1447657463576L394.8990097955707,174.88399745358277L396.24699584752983,171.82318307248912L397.5949818994889,177.11787282220078L398.942967951448,181.78006259696832L400.29095400340714,173.83840508900886L401.6389400553663,185.1585565803116L402.9869261073254,190.9873371547199L404.3349121592845,176.99977361390515L405.6828982112436,170.90542980969573L407.0308842632027,174.24074051308978L408.3788703151618,175.39371168929358L411.0748424190801,168.9922258350842L412.42282847103917,183.1308691457309L413.7708145229983,181.7481722452624L415.1188005749574,182.4331988498134L416.46678662691653,181.3673324678377L417.8147726788756,181.9034482944416L419.1627587308347,177.18046046579818L420.5107447827939,170.0176161772451L420.78306519733104,173.38569945665225L422.1310512492902,187.87280651253772L423.47903730124926,205.92619448088837L424.82702335320846,174.48026898360743L426.17500940516754,183.53655290817983L428.87098150908577,185.42049263401026L430.21896756104485,182.14070035198L431.56695361300393,179.8741838267729L432.9149396649631,184.99077625863308L434.26292571692215,179.48581543051932L435.61091176888135,178.75347783332785L436.95889782084043,174.79308720994663L438.3068838727995,179.1128082507651L439.65486992475866,169.13368341752408L441.00285597671774,178.15467836980812L442.35084202867694,177.887160990311L443.698828080636,191.08769816910814L445.0468141325951,182.99902232290714L446.39480018455424,176.32597251371908L447.7427862365134,177.2580162104006L448.01510665105053,165.0405574617351L449.3630927030097,185.18095959238224L450.7110787549688,179.79635610110168L452.05906480692795,175.12092724783798L453.40705085888703,177.21297477407373L454.7550369108461,181.24066471309723L456.1030229628053,170.4198933196684L457.4510090147644,173.40532437637725L458.79899506672353,182.26771322555572L460.1469811186826,166.6163620638312L461.4949671706417,172.85690083502124L462.84295322260084,178.33246942326272L464.1909392745599,170.24168515238978L465.5389253265191,169.61005940230973L466.8869113784782,196.91385721170198L468.2348974304373,209.76065672663628L469.5828834823964,177.68884793671535L470.9308695343555,176.76546078035398L472.27885558631465,188.0396451854738L473.62684163827373,187.47124360611443L474.97482769023287,166.8405190328511L475.2471481047701,176.3392984433128L476.59513415672916,170.14384281983197L477.9431202086883,187.40751318491695L479.2911062606474,195.894641296914L480.63909231260646,178.21993325632397L481.98707836456566,174.78532775004257L483.33506441652474,184.26089334772647L484.6830504684839,179.2079833404045L486.03103652044297,178.27107026836933L487.37902257240205,181.8572732227355L488.7270086243612,169.51568539976796L490.0749946763203,177.14827984858184L491.42298072827947,174.38311917427527L492.77096678023855,183.92426306453584L494.11895283219764,171.05733237939972L495.4669388841568,174.72848256388517L496.81492493611586,177.26290158464062L498.16291098807505,186.29503519019198L499.51089704003414,176.45096038538756L500.8588830919932,181.33288915097336L502.20686914395236,194.0749256722042L502.4791895584895,191.897031549878L503.82717561044865,170.5566620856154L505.17516166240773,170.97210631154604L506.5231477143669,172.72497744609834L507.871133766326,167.56046892085843L509.2191198182851,187.63658066928411L510.56710587024423,175.61952340027827L511.9150919222033,187.12820919725328L513.2630779741625,175.38289187097664L514.6110640261215,172.0863944659894L515.9590500780806,170.9578330193219L517.3070361300398,180.97415297788808L518.6550221819989,184.3057427974165L520.003008233958,177.1223867937208L521.3509942859172,188.95819610703197L522.6989803378763,166.69215050287517L524.0469663898353,176.84715795097878L525.3949524417944,177.9355530505611L526.7429384937535,181.34323357380867L528.0909245457127,181.8081703548182L529.4389105976718,190.4191481319941L529.711231012209,174.9090894213462L531.0592170641681,192.04002731096742L532.4072031161272,172.283839008609L533.7551891680863,179.37575451986217L535.1031752200454,180.1716648349423L536.4511612720046,194.63087326127868L537.7991473239637,174.51781951276624L539.1471333759229,167.7459582956155L540.495119427882,183.3670767045429L543.1910915318002,180.84942794506765L544.5390775837593,173.0339399408151L545.8870636357184,181.22966662147473L547.2350496876775,184.32891832714475L548.5830357396366,174.4296816475877L549.9310217915958,187.32130661388246L551.2790078435548,182.1417379940408L552.626993895514,175.73275437599779L553.9749799474731,186.03218491441334L555.3229659994322,185.37211428709136L556.6709520513913,180.5425167361429L556.9432724659284,180.37157549162276L559.6392445698467,174.9270253157784L562.335216673765,173.99977671390656L563.6832027257241,167.6081427453869L565.0311887776832,172.49870633851842L566.3791748296422,188.08019550583262L567.7271608816013,185.9824443765952L569.0751469335605,176.05897052691955L570.4231329855196,185.92843899277386L571.7711190374788,180.8449802546484L573.1191050894379,179.87104347392804L574.467091141397,180.73593870161048L575.8150771933562,175.90728737051478L577.1630632453152,174.20763196046227L578.5110492972743,173.8502339799466L579.8590353492334,169.94762904868756L581.2070214011925,187.22434879118708L582.5550074531517,179.21792093441417L583.9029935051108,176.2331458320477L584.175313919648,179.34045183424266L585.5232999716071,173.49103269637814L586.8712860235662,184.24372654261907L588.2192720755253,165.37221951930968L589.5672581274844,178.6047544709071L590.9152441794436,171.51284353076434L592.2632302314026,175.77670560249427L593.6112162833618,182.26470772046767L594.9592023353209,196.07681147413183L596.30718838728,177.93093622905704L597.6551744392391,174.74216046897973L599.0031604911982,176.96158884317833L601.6991325951165,185.83864867118575L603.0471186470755,186.88682485591326L604.3951046990347,176.35810856260898L605.7430907509938,187.16742475337531L607.0910768029529,174.47821655503782L608.439062854912,181.54979291056597L609.7870489068711,181.2481247652701L611.1350349588303,181.24131381077402L611.4073553733674,171.69571537342864L612.7553414253266,177.6395439399405L614.1033274772857,180.64362284152634L615.4513135292448,180.93740582138213L616.799299581204,171.96112089992093L618.147285633163,167.4300877103067L619.4952716851221,177.16036700725718L620.8432577370812,205.14623048443877L622.1912437890403,170.2264370708728L623.5392298409995,177.16996519631968L624.8872158929586,178.59812407527184L626.2352019449178,176.1411979463508L627.5831879968769,181.71331524290684L628.9311740488359,179.7958464222921L630.279160100795,176.45626401622917L631.6271461527541,174.6118609670264L632.9751322047133,178.7021511202009L634.3231182566724,182.48871041451156L635.6711043086315,179.28506140397005L637.0190903605907,187.89761621423398L638.3670764125497,168.92941420707717L638.6393968270869,178.51837876878784L641.3353689310051,177.4165811735126L642.6833549829643,190.34684916435177L644.0313410349233,183.50564534520996L645.3793270868825,179.51098853549234L646.7273131388416,184.56514874150875L648.0752991908007,172.19403383091208L650.771271294719,169.73743567916222L652.1192573466781,166.2471111940482L653.4672433986372,177.35730758495518L654.8152294505962,177.74945400395438L656.1632155025554,180.83826072236033L657.5112015545145,174.2746055844885L658.8591876064737,175.12750050459323L660.2071736584328,173.0270501346646L661.5551597103919,168.01028504005342L662.903145762351,178.63524149172022L665.5991178662692,181.69896881291632L665.8714382808064,177.78976548379478L667.2194243327656,176.6716513099466L668.5674103847247,177.27850392721362L669.9153964366837,173.3218376160308L671.2633824886428,186.28840250900154L672.6113685406019,179.12446001117482L673.9593545925611,173.3702845296057L675.3073406445202,186.09113166857713L676.6553266964793,178.15583943184976L678.0033127484385,176.98096006627617L679.3512988003976,175.9851185245188L683.3952569562748,181.50825751591597L684.743243008234,179.72872423717777L686.0912290601931,168.47060385678128L687.4392151121522,175.84449174139417L688.7872011641114,170.950218692173L690.1351872160704,173.7257237893149L691.4831732680296,178.85504333530648L692.8311593199887,161.6869206053585L693.1034797345259,182.51321613736621L694.451465786485,185.87181893380367L695.7994518384442,181.6857423049738L697.1474378904031,184.79159012295105L698.4954239423623,190.76789414330005L699.8434099943215,180.44783304087153L701.1913960462805,178.0440049303574L703.8873681501988,183.13729612695337L705.235354202158,188.10511948528887L706.5833402541169,173.76097162160968L707.9313263060761,174.81311553016442L709.2793123580353,173.29602684115696L710.6272984099943,180.6212586838941L711.9752844619535,185.5521748968596L713.3232705139126,175.78556898555993L714.6712565658717,170.0895128871722L716.0192426178307,173.7909375358372L717.3672286697899,180.89787028753213L718.7152147217491,177.49320212603817L720.0632007737081,171.30191649801978L720.3355211882455,174.8116116348428L721.6835072402044,175.2023844351668L723.0314932921636,173.11144540320305L724.3794793441227,184.84157064406517L725.7274653960818,180.96408510723202L727.0754514480409,187.0881022746033L728.4234375000001,178.69681206325367L729.7714235519591,188.4594993901629L731.1194096039183,176.56035734225907L732.4673956558775,167.2745733919979L733.8153817078365,164.43516817118493L735.1633677597956,186.02078456507562L736.5113538117547,174.9391787555545L737.8593398637139,166.5474742873249L739.2073259156729,180.9844448329538L740.5553119676321,178.55540476302824L741.9032980195913,177.63759436135484L743.2512840715502,175.08524401727763L744.5992701235094,163.75290880259234L745.9472561754685,172.8015892564031L747.2952422274276,186.25001203830675L747.5675626419649,176.41185453591513L748.9155486939238,179.47542301102482L750.263534745883,177.66471133102553L751.6115207978422,180.39796451196221L752.9595068498013,200.3552222474875L754.3074929017604,168.26560326867042L755.6554789537195,178.4738561534914L757.0034650056787,177.5365728215138L758.3514510576376,181.39233187061558L759.6994371095968,187.34878127294195L761.047423161556,185.89669948771112L762.395409213515,182.12337127245343L763.7433952654742,171.82593488094994L765.0913813174334,170.94466822136974L766.4393673693925,183.1936099215268L769.1353394733106,167.893268042145L770.4833255252698,177.4551544886234L771.8313115772288,180.57475906334966L773.179297629188,168.64488772578147L774.5272836811472,173.00161761917633L774.7996040956843,183.08407011745524L776.1475901476434,178.73510425507484L777.4955761996025,180.20468653647222L778.8435622515616,183.7953828923617L780.1915483035208,177.86295581796514L781.5395343554798,179.1496902550279L782.887520407439,177.49016690873256L785.5834925113572,178.9143237805295L786.9314785633163,178.81988921077493L788.2794646152754,179.17839454278499L789.6274506672346,177.43423480187758L790.9754367191936,184.21612617802356L792.3234227711528,173.4471340376513L793.671408823112,181.28921219110094L795.0193948750709,191.97439987895396L796.3673809270301,179.7589987013573L797.7153669789893,186.63302080761628L799.0633530309484,179.1412062741254L800.4113390829075,180.4859263893903L801.7593251348666,187.20166008471645L802.0316455494037,180.22511025773966L803.3796316013629,168.09144853353905L804.7276176533221,189.8811992901198L806.0756037052811,177.30444954984424L807.4235897572403,167.0180443905137L808.7715758091994,171.87646164975686L810.1195618611584,174.88321465092673L811.4675479131175,182.46569715920253L812.8155339650767,171.58698808423068L814.1635200170359,183.03466784180674L815.5115060689949,171.1818471411418L816.8594921209541,181.01337310512054L818.2074781729132,175.29344095433572L819.5554642248723,178.5911691307982L820.9034502768313,184.47598694760063L822.2514363287905,178.44540556236151L823.5994223807495,184.7062612051134L824.9474084327087,181.31726509562603L826.2953944846679,167.8613685482183L827.6433805366269,176.94281300721016L828.9913665885861,175.29375636095335L829.2636870031232,174.4779194328618L830.6116730550823,182.90743784048703L831.9596591070415,174.086480393197L833.3076451590007,171.4495873622709L834.6556312109597,186.3029660667361L836.0036172629189,179.35578333852442L838.699589366837,183.31369299173596L840.0475754187962,178.02171162493636L841.3955614707553,181.98904919334805L842.7435475227144,180.96825624547205L844.0915335746735,181.48155766006929L846.7875056785919,181.59653479996166L848.1354917305508,177.36204325532964L849.48347778251,176.37404231068595L850.8314638344691,178.67487987555427L852.1794498864282,174.41557862922596L853.5274359383873,181.9028997611936L854.8754219903465,172.594786508017L856.2234080423054,178.66077571441488L856.4957284568428,185.47981879033728L857.8437145088018,175.9560051223809L859.191700560761,181.10561125632785L860.5396866127201,178.18804519017328L861.8876726646791,181.55616503846366L863.2356587166382,158.27059039845642L864.5836447685974,186.38227711773212L865.9316308205566,176.0967164710479L867.2796168725156,180.9248649799996L868.6276029244748,173.75727130774084L869.975588976434,175.17418868344168L871.323575028393,171.95097874872081L872.6715610803521,187.47288692030324L874.0195471323112,177.65508914363343L875.3675331842703,184.34755702980095L876.7155192362294,189.15271285344036L878.0635052881886,177.51009237896633L879.4114913401478,169.07531833715868L880.7594773921068,180.9423083372862L882.107463444066,181.54837586634198L883.455449496025,181.68364873641056L883.7277699105622,177.46177345648266L885.0757559625214,182.86807372327704L886.4237420144804,183.97508924107393L887.7717280664396,172.5000193899808L889.1197141183987,177.455789872969L890.4677001703577,174.68877561339517L891.8156862223169,176.19802599084417L893.163672274276,181.21129075766652L894.5116583262352,177.692208845637L895.8596443781942,171.17562814544252L897.2076304301534,182.9146373393671L898.5556164821126,181.87341609911329L899.9036025340715,181.36495777598486L901.2515885860307,183.29339954711497L902.5995746379898,181.86015987895314L903.9475606899489,165.75664419006563L905.2955467419081,178.77399526235845L906.6435327938672,173.18435689963903L907.9915188458262,187.48060524021372L909.3395048977853,176.5656026914431L910.6874909497445,182.95798517929074L910.9598113642817,191.7434216704396L912.3077974162409,180.3155451058942L913.6557834682,181.78255156658116L915.003769520159,189.05151304029374L916.3517555721181,198.70575534407226L917.6997416240773,183.46380368616312L919.0477276760363,173.0183341699093L920.3957137279955,173.78564761832675L921.7436997799547,180.74626026889376L923.0916858319137,185.03657878484154L924.4396718838728,178.71574560253063L925.7876579358319,173.44171612904967L927.1356439877911,183.40639511064893L928.4836300397501,168.9416156435125L929.8316160917093,186.52294389807273L931.1796021436685,166.8807796590883L932.5275881956275,175.74398673702834L933.8755742475867,174.4981157413868L935.2235602995457,181.90725602940483L937.9195324034639,176.08830105680144L938.191852818001,189.54356793375158L939.5398388699602,181.27113344946872L942.2358109738784,173.04674704937838L943.5837970258376,177.01079684663486L944.9317830777968,172.04461223137778L946.2797691297559,183.89184474957867L947.627755181715,182.5993929961831L948.9757412336741,178.2192864442024L950.3237272856333,182.2863496426567L951.6717133375922,176.437899580197L953.0196993895514,178.7194276319579L954.3676854415106,181.49401165035422L955.7156714934696,178.8172402522981L957.0636575454288,179.83553508834046L958.4116435973879,179.41159888206414L959.7596296493471,186.4131321129324L961.107615701306,175.87589298428728L962.4556017532652,192.9851660961675L963.8035878052244,175.6215826855135L965.1515738571834,179.1314195267589L965.4238942717207,188.05002389163712L966.7718803236797,186.13588741050398L968.1198663756388,164.0618558698115L969.467852427598,170.4967519699348L970.815838479557,173.15984432011876L972.1638245315162,188.56806554771921L973.5118105834754,175.85447733206306L974.8597966354345,186.02307926249642L976.2077826873935,173.25892770915016L977.5557687393526,193.64056961977096L978.9037547913118,174.30573827464565L980.2517408432709,169.66906558090875L981.59972689523,193.48328228201575L982.9477129471892,183.60781194820618L984.2956989991482,179.69190851401584L985.6436850511074,180.828053432837L986.9916711030666,189.7541224209985L988.3396571550255,177.80399077935976L989.6876432069847,180.77109739725245L991.0356292589438,172.61157048262837L992.383615310903,185.9710188861503L992.6559357254401,175.7138139800552L995.3519078293583,185.8557583374131L998.0478799332766,180.6096754901404L999.3958659852357,169.8624384069395L1000.7438520371948,185.01566366920616L1002.091838089154,176.70846474755336L1003.4398241411129,174.78686478591456L1004.7878101930721,196.43433858851628L1006.1357962450313,187.17296722473534L1007.4837822969904,178.29104373526232L1008.8317683489495,192.47658892416868L1011.5277404528678,178.83235005772542L1012.8757265048267,175.32605239870728L1014.2237125567859,189.24198892510847L1015.5716986087451,174.0960168722691L1016.9196846607041,180.3560977118082L1018.2676707126633,180.23279200876695L1019.8879771791596,179.86441764940315L1021.2359632311187,184.0480990163835L1022.5839492830778,178.4141894494396L1023.9319353350369,183.76313599404457L1025.279921386996,185.19178398180952L1026.6279074389552,179.5811390812467L1027.9758934909141,171.93493757954946L1029.3238795428733,187.1447703302327L1030.6718655948325,184.20169061138023L1032.0198516467915,167.10175570665854L1033.3678376987507,180.0819613644518L1034.71582375071,183.31823210436323L1036.0638098026689,168.4886825984135L1037.411795854628,178.6608442810709L1038.7597819065872,176.63011477251897L1040.1077679585464,177.1895569754943L1041.4557540105054,184.6573800360505L1044.1517261144238,174.07251222259205L1045.4997121663828,177.27125643167432L1046.847698218342,174.05274217011188L1047.120018632879,193.49180740291186L1048.4680046848382,182.1490837684537L1049.8159907367974,178.5620260164427L1051.1639767887564,176.58078334908166L1052.5119628407156,171.03337633257067L1053.8599488926748,189.175767248743L1055.2079349446337,180.2691849042169L1056.555920996593,174.4098041740131L1057.903907048552,172.54946509117815L1059.251893100511,179.99829404524453L1060.59987915247,165.29805439584652L1061.9478652044293,162.79433523823218L1063.2958512563885,158.56126730879535L1064.6438373083474,183.39904019401524L1065.9918233603066,176.95113128536067L1067.3398094122658,176.11713676398256L1068.6877954642248,177.38449426405947L1070.035781516184,172.3401436609616L1071.3837675681432,173.41824004881258L1072.7317536201024,169.15271637845225L1074.0797396720614,172.27793999063775L1074.3520600865986,184.58563874387696L1075.7000461385576,171.60455371872047L1077.0480321905168,179.82123894056434L1078.396018242476,177.51985855633603L1079.744004294435,179.4370119703332L1081.0919903463941,189.63430218963728L1082.4399763983533,179.5828121076531L1083.7879624503123,173.21088648162328L1085.1359485022715,164.40202419245176L1086.4839345542307,172.8383821240131L1087.8319206061897,176.48978739712555L1089.1799066581489,175.045261657386L1090.5278927101078,177.475814764854L1091.875878762067,166.03578076081087L1093.223864814026,177.15308522838993L1094.5718508659852,177.09843874633495L1095.9198369179444,165.9587489797381L1097.2678229699034,174.9258196854104L1098.6158090218626,172.4975669892512L1099.9637950738218,177.85178288136987L1101.584101540318,175.82271268589312L1102.932087592277,177.17601163260136L1104.2800736442362,174.89580348896848L1105.6280596961954,180.905764595193L1106.9760457481545,175.03242940771545L1109.6720178520727,174.1937369276237L1111.020003904032,174.80458126704755L1112.3679899559909,180.2866214048379L1113.71597600795,179.68743111137897L1115.0639620599093,184.57553430433768L1116.4119481118682,174.07258307480328L1117.7599341638274,179.63538673391923L1119.1079202157866,176.05197901356266L1120.4559062677456,190.8592523557554L1121.8038923197048,160.9620770579735L1123.1518783716638,171.12864398719563L1125.847850475582,172.5924255294954L1127.1958365275411,176.36250139970346L1128.5438225795003,185.16731711339332L1128.8161429940376,182.60570112853515L1130.1641290459966,174.8456321239952L1131.5121150979558,178.89645988108612L1132.8601011499147,179.0143259627513L1134.208087201874,180.79251076392146L1135.5560732538331,189.8416363296074L1136.904059305792,179.21835976101258L1138.2520453577513,186.93627512822096L1139.6000314097105,188.91223587751472L1140.9480174616695,169.91489418433525L1142.2960035136286,179.23422379965598L1143.6439895655878,171.12910795490123L1144.9919756175468,196.4547303120109L1146.339961669506,182.04572410564305L1147.6879477214652,181.98876349894806L1149.0359337734242,178.18246843548522L1150.3839198253834,188.79386925926073L1151.7319058773426,179.15400309769035L1153.0798919293015,170.84739499205676L1154.4278779812607,178.35875787917342L1155.7758640332197,180.01718873008315L1156.048184447757,185.2544790465014L1157.3961704997162,167.8129816304674L1158.7441565516754,199.98994938653016L1160.0921426036343,168.43587598829455L1161.4401286555935,184.4020400946591L1164.1361007595117,197.97227954039118L1165.4840868114707,169.34364937430703L1166.8320728634299,175.09568900454173L1168.180058915389,178.44793338641273L1169.528044967348,191.30974214234558L1170.8760310193072,180.0248476255584L1172.2240170712664,183.43853001676126L1173.5720031232254,174.52506243719512L1174.9199891751846,197.7107114610797L1176.2679752271438,193.73900619668078L1177.6159612791027,171.52472384669406L1178.963947331062,181.48035774358925L1180.3119333830211,183.3046353364783L1181.65991943498,174.5266086152879L1183.0079054869393,175.11761662113074L1183.2802259014763,180.9532584322495L1184.6282119534355,182.01689182679476L1185.9761980053947,180.5219147415699L1187.324184057354,174.53795753963362L1188.672170109313,195.03119054011796L1190.020156161272,171.3012365453478L1191.3681422132313,180.75764004823466L1192.7161282651903,175.28619688712925L1194.0641143171495,177.5845877651559L1195.4121003691084,182.65039516047162L1196.7600864210676,176.04849925577062L1198.1080724730266,189.6245108711604L1199.4560585249858,180.98903879890585L1202.152030628904,172.54623788723572L1203.5000166808632,180.5529571522966L1204.8480027328224,184.73065265020804L1206.1959887847813,175.5918144718108L1207.5439748367405,175.59347149933078L1208.8919608886997,190.60228738461674L1210.2399469406587,166.6552456430604L1210.512267355196,174.3884296617825L1211.860253407155,190.65650989618211L1213.208239459114,177.02416734455502L1214.5562255110733,174.7637258250695L1217.2521976149915,192.96428754941527L1218.6001836669507,180.95777926043513L1219.9481697189099,169.16132835044593L1221.2961557708688,179.39827180969283L1222.644141822828,183.6760266287061L1223.9921278747872,195.65722239384596L1225.3401139267462,174.60966569125674L1226.6880999787054,180.79411293811665L1229.3840720826236,168.98920090277701L1232.0800441865417,169.2832958609176L1234.77601629046,173.41458201771496L1236.124002342419,180.56498374375911L1237.4719883943783,193.49789840751993L1237.7443088089153,180.65393755214401L1239.0922948608745,172.94178292681733L1240.4402809128335,178.454746626464L1241.7882669647927,178.8074100793828L1243.1362530167519,189.7525842423489L1244.4842390687108,182.74443890028698L1245.83222512067,175.3574467849348L1247.1802111726292,196.640993918592L1248.5281972245884,177.98676320037282L1249.8761832765474,185.95227961906534L1251.2241693285066,166.189062663078L1252.5721553804658,188.14236032171806L1253.9201414324248,180.98725378029465L1255.268127484384,181.55409661100762L1256.6161135363432,183.50547621412514L1257.9640995883021,180.6123838730524L1259.3120856402613,186.83798254128874L1260.6600716922203,184.78335526756536L1262.0080577441795,178.5612969243339L1263.3560437961385,167.37864900497496L1264.7040298480977,177.84421540810254L1266.3243363145941,183.46583783029115L1267.672322366553,182.96956380193407L1269.0203084185123,169.1554784719115L1270.3682944704713,186.93730591361617L1271.7162805224305,175.86038892058795L1273.0642665743894,180.95711187831674L1274.4122526263486,174.88958335049162L1275.7602386783078,186.14465251469608L1277.1082247302668,170.06708473399442L1278.456210782226,187.58150107451874L1279.8041968341852,180.80853479142883L1281.1521828861444,184.7271260385344L1282.5001689381033,177.3085852619787L1283.8481549900625,176.9387561467301L1285.1961410420217,174.66825818436453L1286.5441270939807,181.23018772806032L1287.89211314594,182.14186369957682L1289.2400991978989,171.8394790810653L1290.588085249858,179.00794240707765L1291.9360713018173,177.8987384701767L1292.2083917163543,175.54091972861667L1293.5563777683135,182.3162241346762L1294.9043638202727,177.60976658401697L1296.252349872232,183.33967289769464L1297.6003359241909,192.22512756995172L1298.94832197615,185.36670209237772L1300.296308028109,173.6138847167122L1301.6442940800682,181.25308442005417L1302.9922801320272,182.71402044612987L1304.3402661839864,190.29655095106486L1305.6882522359454,186.8831451120412L1307.0362382879046,183.55228209906642L1308.3842243398637,180.39269402167096L1309.7322103918227,174.281169699023L1311.080196443782,175.12625830534202L1312.428182495741,169.65870744474222L1313.7761685477003,187.89924581509158L1315.1241545996593,179.79082505751762L1316.4721406516185,184.49974072279446L1317.8201267035777,180.31789465663982L1319.1681127555366,180.7202369373863L1319.440433170074,180.76456070938036L1320.7884192220329,171.88801513129297L1322.136405273992,190.82990582698707L1323.4843913259513,175.59886998071323L1324.8323773779102,182.2182332410304L1326.1803634298694,180.0999212572136L1327.5283494818286,165.3646771871496L1328.8763355337878,185.5897539954584L1331.572307637706,190.663078581827L1332.920293689665,174.89438873029965L1334.2682797416242,178.43901743557745L1335.6162657935831,163.7684614343397L1336.9642518455423,181.3842204352107L1338.3122378975013,188.00823251480466L1339.6602239494605,179.71359386175365L1342.3561960533787,172.6145245627244L1343.7041821053378,179.81562104588266L1345.052168157297,173.28632123100007L1346.4001542092562,173.98258933880237L1346.6724746237933,187.69474576356947L1348.0204606757525,159.94470687185668L1349.3684467277114,174.52211635654226L1350.7164327796706,179.9538742799321L1352.0644188316298,180.3860659115909L1353.4124048835888,176.96043006669197L1354.760390935548,175.35260369346597L1356.1083769875072,187.13416763965975L1357.4563630394662,171.26708463677144L1358.8043490914254,185.2182278554738L1360.1523351433846,177.20842651922567L1361.5003211953435,183.4227871125435L1362.8483072473027,180.08819178792706" style="fill: none;" fill="none"></path></g></g></g></g></g></g><g transform="translate(46, 378)" clip-path="url(#clip_1)"><clipPath id="clip_1"><rect width="1385" height="22"></rect></clipPath><g><g><line x1="12.288827370812049" y1="0" x2="12.288827370812049" y2="5" style="visibility: inherit;" fill="rgb(0, 0, 0)" stroke="rgb(204, 204, 204)" stroke-width="1px"></line><line x1="148.44903463940943" y1="0" x2="148.44903463940943" y2="5" style="visibility: inherit;" fill="rgb(0, 0, 0)" stroke="rgb(204, 204, 204)" stroke-width="1px"></line><line x1="284.6092419080068" y1="0" x2="284.6092419080068" y2="5" style="visibility: inherit;" fill="rgb(0, 0, 0)" stroke="rgb(204, 204, 204)" stroke-width="1px"></line><line x1="420.7694491766042" y1="0" x2="420.7694491766042" y2="5" style="visibility: inherit;" fill="rgb(0, 0, 0)" stroke="rgb(204, 204, 204)" stroke-width="1px"></line><line x1="556.9296564452017" y1="0" x2="556.9296564452017" y2="5" style="visibility: inherit;" fill="rgb(0, 0, 0)" stroke="rgb(204, 204, 204)" stroke-width="1px"></line><line x1="693.0898637137991" y1="0" x2="693.0898637137991" y2="5" style="visibility: inherit;" fill="rgb(0, 0, 0)" stroke="rgb(204, 204, 204)" stroke-width="1px"></line><line x1="829.2500709823964" y1="0" x2="829.2500709823964" y2="5" style="visibility: inherit;" fill="rgb(0, 0, 0)" stroke="rgb(204, 204, 204)" stroke-width="1px"></line><line x1="965.4102782509938" y1="0" x2="965.4102782509938" y2="5" style="visibility: inherit;" fill="rgb(0, 0, 0)" stroke="rgb(204, 204, 204)" stroke-width="1px"></line><line x1="1101.570485519591" y1="0" x2="1101.570485519591" y2="5" style="visibility: inherit;" fill="rgb(0, 0, 0)" stroke="rgb(204, 204, 204)" stroke-width="1px"></line><line x1="1237.7306927881884" y1="0" x2="1237.7306927881884" y2="5" style="visibility: inherit;" fill="rgb(0, 0, 0)" stroke="rgb(204, 204, 204)" stroke-width="1px"></line><line x1="1373.890900056786" y1="0" x2="1373.890900056786" y2="5" style="visibility: inherit;" fill="rgb(0, 0, 0)" stroke="rgb(204, 204, 204)" stroke-width="1px"></line></g><g transform="translate(0, 8)"><text x="12.288827370812049" y="0" dx="0em" dy="0.95em" style="text-anchor: middle; visibility: inherit; font-family: &quot;Helvetica Neue&quot;, sans-serif; font-size: 12px; font-weight: 200;" fill="rgb(50, 49, 63)" stroke="none" stroke-width="1px">0</text><text x="148.44903463940943" y="0" dx="0em" dy="0.95em" style="text-anchor: middle; visibility: inherit; font-family: &quot;Helvetica Neue&quot;, sans-serif; font-size: 12px; font-weight: 200;" fill="rgb(50, 49, 63)" stroke="none" stroke-width="1px">10k</text><text x="284.6092419080068" y="0" dx="0em" dy="0.95em" style="text-anchor: middle; visibility: inherit; font-family: &quot;Helvetica Neue&quot;, sans-serif; font-size: 12px; font-weight: 200;" fill="rgb(50, 49, 63)" stroke="none" stroke-width="1px">20k</text><text x="420.7694491766042" y="0" dx="0em" dy="0.95em" style="text-anchor: middle; visibility: inherit; font-family: &quot;Helvetica Neue&quot;, sans-serif; font-size: 12px; font-weight: 200;" fill="rgb(50, 49, 63)" stroke="none" stroke-width="1px">30k</text><text x="556.9296564452017" y="0" dx="0em" dy="0.95em" style="text-anchor: middle; visibility: inherit; font-family: &quot;Helvetica Neue&quot;, sans-serif; font-size: 12px; font-weight: 200;" fill="rgb(50, 49, 63)" stroke="none" stroke-width="1px">40k</text><text x="693.0898637137991" y="0" dx="0em" dy="0.95em" style="text-anchor: middle; visibility: inherit; font-family: &quot;Helvetica Neue&quot;, sans-serif; font-size: 12px; font-weight: 200;" fill="rgb(50, 49, 63)" stroke="none" stroke-width="1px">50k</text><text x="829.2500709823964" y="0" dx="0em" dy="0.95em" style="text-anchor: middle; visibility: inherit; font-family: &quot;Helvetica Neue&quot;, sans-serif; font-size: 12px; font-weight: 200;" fill="rgb(50, 49, 63)" stroke="none" stroke-width="1px">60k</text><text x="965.4102782509938" y="0" dx="0em" dy="0.95em" style="text-anchor: middle; visibility: inherit; font-family: &quot;Helvetica Neue&quot;, sans-serif; font-size: 12px; font-weight: 200;" fill="rgb(50, 49, 63)" stroke="none" stroke-width="1px">70k</text><text x="1101.570485519591" y="0" dx="0em" dy="0.95em" style="text-anchor: middle; visibility: inherit; font-family: &quot;Helvetica Neue&quot;, sans-serif; font-size: 12px; font-weight: 200;" fill="rgb(50, 49, 63)" stroke="none" stroke-width="1px">80k</text><text x="1237.7306927881884" y="0" dx="0em" dy="0.95em" style="text-anchor: middle; visibility: inherit; font-family: &quot;Helvetica Neue&quot;, sans-serif; font-size: 12px; font-weight: 200;" fill="rgb(50, 49, 63)" stroke="none" stroke-width="1px">90k</text><text x="1373.890900056786" y="0" dx="0em" dy="0.95em" style="text-anchor: middle; visibility: hidden; font-family: &quot;Helvetica Neue&quot;, sans-serif; font-size: 12px; font-weight: 200;" fill="rgb(50, 49, 63)" stroke="none" stroke-width="1px">100k</text></g><line x1="0" y1="0" x2="1385" y2="0" fill="rgb(0, 0, 0)" stroke="rgb(204, 204, 204)" stroke-width="1px"></line></g></g></g></g></svg>