<svg viewBox="0 0 1431 400" xmlns="http://www.w3.org/2000/svg"><g><g><g><g><g><line x1="46" y1="350.09803427483575" x2="41" y2="350.09803427483575" style="visibility: inherit;" fill="rgb(0, 0, 0)" stroke="rgb(204, 204, 204)" stroke-width="1px"></line><line x1="46" y1="303.0150535544746" x2="41" y2="303.0150535544746" style="visibility: inherit;" fill="rgb(0, 0, 0)" stroke="rgb(204, 204, 204)" stroke-width="1px"></line><line x1="46" y1="255.93207283411346" x2="41" y2="255.93207283411346" style="visibility: inherit;" fill="rgb(0, 0, 0)" stroke="rgb(204, 204, 204)" stroke-width="1px"></line><line x1="46" y1="208.8490921137523" x2="41" y2="208.8490921137523" style="visibility: inherit;" fill="rgb(0, 0, 0)" stroke="rgb(204, 204, 204)" stroke-width="1px"></line><line x1="46" y1="161.76611139339116" x2="41" y2="161.76611139339116" style="visibility: inherit;" fill="rgb(0, 0, 0)" stroke="rgb(204, 204, 204)" stroke-width="1px"></line><line x1="46" y1="114.68313067303" x2="41" y2="114.68313067303" style="visibility: inherit;" fill="rgb(0, 0, 0)" stroke="rgb(204, 204, 204)" stroke-width="1px"></line><line x1="46" y1="67.60014995266886" x2="41" y2="67.60014995266886" style="visibility: inherit;" fill="rgb(0, 0, 0)" stroke="rgb(204, 204, 204)" stroke-width="1px"></line><line x1="46" y1="20.517169232307708" x2="41" y2="20.517169232307708" style="visibility: inherit;" fill="rgb(0, 0, 0)" stroke="rgb(204, 204, 204)" stroke-width="1px"></line></g><g transform="translate(36, 0)"><text x="0" y="350.09803427483575" dx="0em" dy="0.3em" style="text-anchor: end; visibility: inherit; font-family: &quot;Helvetica Neue&quot;, sans-serif; font-size: 12px; font-weight: 200;" fill="rgb(50, 49, 63)" stroke="none" stroke-width="1px">0</text><text x="0" y="303.0150535544746" dx="0em" dy="0.3em" style="text-anchor: end; visibility: inherit; font-family: &quot;Helvetica Neue&quot;, sans-serif; font-size: 12px; font-weight: 200;" fill="rgb(50, 49, 63)" stroke="none" stroke-width="1px">0.2</text><text x="0" y="255.93207283411346" dx="0em" dy="0.3em" style="text-anchor: end; visibility: inherit; font-family: &quot;Helvetica Neue&quot;, sans-serif; font-size: 12px; font-weight: 200;" fill="rgb(50, 49, 63)" stroke="none" stroke-width="1px">0.4</text><text x="0" y="208.8490921137523" dx="0em" dy="0.3em" style="text-anchor: end; visibility: inherit; font-family: &quot;Helvetica Neue&quot;, sans-serif; font-size: 12px; font-weight: 200;" fill="rgb(50, 49, 63)" stroke="none" stroke-width="1px">0.6</text><text x="0" y="161.76611139339116" dx="0em" dy="0.3em" style="text-anchor: end; visibility: inherit; font-family: &quot;Helvetica Neue&quot;, sans-serif; font-size: 12px; font-weight: 200;" fill="rgb(50, 49, 63)" stroke="none" stroke-width="1px">0.8</text><text x="0" y="114.68313067303" dx="0em" dy="0.3em" style="text-anchor: end; visibility: inherit; font-family: &quot;Helvetica Neue&quot;, sans-serif; font-size: 12px; font-weight: 200;" fill="rgb(50, 49, 63)" stroke="none" stroke-width="1px">1</text><text x="0" y="67.60014995266886" dx="0em" dy="0.3em" style="text-anchor: end; visibility: inherit; font-family: &quot;Helvetica Neue&quot;, sans-serif; font-size: 12px; font-weight: 200;" fill="rgb(50, 49, 63)" stroke="none" stroke-width="1px">1.2</text><text x="0" y="20.517169232307708" dx="0em" dy="0.3em" style="text-anchor: end; visibility: inherit; font-family: &quot;Helvetica Neue&quot;, sans-serif; font-size: 12px; font-weight: 200;" fill="rgb(50, 49, 63)" stroke="none" stroke-width="1px">1.4</text></g><line x1="46" y1="0" x2="46" y2="378" fill="rgb(0, 0, 0)" stroke="rgb(204, 204, 204)" stroke-width="1px"></line></g></g><g transform="translate(46, 0)" clip-path="url(#clip_0)"><clipPath id="clip_0"><rect width="1385" height="378"></rect></clipPath><g><g><g><line x1="18.290143830905194" y1="0" x2="18.290143830905194" y2="378" fill="rgb(0, 0, 0)" stroke="rgb(60, 60, 60)" stroke-width="1px" opacity="0.25"></line><line x1="151.76419434170955" y1="0" x2="151.76419434170955" y2="378" fill="rgb(0, 0, 0)" stroke="rgb(60, 60, 60)" stroke-width="1px" opacity="0.25"></line><line x1="285.23824485251396" y1="0" x2="285.23824485251396" y2="378" fill="rgb(0, 0, 0)" stroke="rgb(60, 60, 60)" stroke-width="1px" opacity="0.25"></line><line x1="418.71229536331833" y1="0" x2="418.71229536331833" y2="378" fill="rgb(0, 0, 0)" stroke="rgb(60, 60, 60)" stroke-width="1px" opacity="0.25"></line><line x1="552.1863458741227" y1="0" x2="552.1863458741227" y2="378" fill="rgb(0, 0, 0)" stroke="rgb(60, 60, 60)" stroke-width="1px" opacity="0.25"></line><line x1="685.660396384927" y1="0" x2="685.660396384927" y2="378" fill="rgb(0, 0, 0)" stroke="rgb(60, 60, 60)" stroke-width="1px" opacity="0.25"></line><line x1="819.1344468957315" y1="0" x2="819.1344468957315" y2="378" fill="rgb(0, 0, 0)" stroke="rgb(60, 60, 60)" stroke-width="1px" opacity="0.25"></line><line x1="952.6084974065358" y1="0" x2="952.6084974065358" y2="378" fill="rgb(0, 0, 0)" stroke="rgb(60, 60, 60)" stroke-width="1px" opacity="0.25"></line><line x1="1086.0825479173402" y1="0" x2="1086.0825479173402" y2="378" fill="rgb(0, 0, 0)" stroke="rgb(60, 60, 60)" stroke-width="1px" opacity="0.25"></line><line x1="1219.5565984281445" y1="0" x2="1219.5565984281445" y2="378" fill="rgb(0, 0, 0)" stroke="rgb(60, 60, 60)" stroke-width="1px" opacity="0.25"></line><line x1="1353.030648938949" y1="0" x2="1353.030648938949" y2="378" fill="rgb(0, 0, 0)" stroke="rgb(60, 60, 60)" stroke-width="1px" opacity="0.25"></line></g><g><line x1="0" y1="350.09803427483575" x2="1385" y2="350.09803427483575" fill="rgb(0, 0, 0)" stroke="rgb(60, 60, 60)" stroke-width="1px" opacity="0.25"></line><line x1="0" y1="303.0150535544746" x2="1385" y2="303.0150535544746" fill="rgb(0, 0, 0)" stroke="rgb(60, 60, 60)" stroke-width="1px" opacity="0.25"></line><line x1="0" y1="255.93207283411346" x2="1385" y2="255.93207283411346" fill="rgb(0, 0, 0)" stroke="rgb(60, 60, 60)" stroke-width="1px" opacity="0.25"></line><line x1="0" y1="208.8490921137523" x2="1385" y2="208.8490921137523" fill="rgb(0, 0, 0)" stroke="rgb(60, 60, 60)" stroke-width="1px" opacity="0.25"></line><line x1="0" y1="161.76611139339116" x2="1385" y2="161.76611139339116" fill="rgb(0, 0, 0)" stroke="rgb(60, 60, 60)" stroke-width="1px" opacity="0.25"></line><line x1="0" y1="114.68313067303" x2="1385" y2="114.68313067303" fill="rgb(0, 0, 0)" stroke="rgb(60, 60, 60)" stroke-width="1px" opacity="0.25"></line><line x1="0" y1="67.60014995266886" x2="1385" y2="67.60014995266886" fill="rgb(0, 0, 0)" stroke="rgb(60, 60, 60)" stroke-width="1px" opacity="0.25"></line><line x1="0" y1="20.517169232307708" x2="1385" y2="20.517169232307708" fill="rgb(0, 0, 0)" stroke="rgb(60, 60, 60)" stroke-width="1px" opacity="0.25"></line></g></g></g><g><g><line x1="0" y1="350.09803427483575" x2="1385" y2="350.09803427483575" fill="rgb(0, 0, 0)" stroke="rgb(153, 153, 153)" stroke-width="1.5px"></line></g></g><g><g><line x1="18.290143830905194" y1="0" x2="18.290143830905194" y2="378" fill="rgb(0, 0, 0)" stroke="rgb(153, 153, 153)" stroke-width="1.5px"></line></g></g><g><g><g><g><g><path stroke="rgb(255, 112, 67)" stroke-width="2px" d="M18.303491235956272,21.505099283929496L20.9462774360702,262.00664349210473L22.267670536127163,143.89191105033186L23.58906363618413,335.45215725133914L24.910456736241088,297.88261588842755L26.231849836298053,310.230678623206L27.553242936355016,318.9785968633845L28.87463603641198,310.10062117578696L30.196029136468944,308.20426256795395L31.51742223652591,318.73536575801165L32.83881533658287,319.9374193040635L34.160208436639834,324.8477921661871L35.4816015366968,314.67534935479495L38.124387736810725,320.7122424667377L39.445780836867684,337.2442699477776L40.76717393692465,302.53680276579L42.088567036981615,336.2279679034658L43.409960137038574,333.8951161559528L44.73135323709554,323.5121083201147L44.99830133811715,340.53664660404365L46.31969443817412,292.4795226230782L47.64108753823107,318.3753828801505L48.962480638288035,321.15369760936784L50.283873738345,312.7999998920083L51.60526683840197,323.9308564672723L52.926659938458926,333.31319370817687L54.24805303851589,334.032494706346L55.56944613857286,319.9367878720868L56.89083923862982,319.51151843579225L58.21223233868678,321.93969361007385L59.53362543874375,298.7891697932591L60.855018538800714,325.87082071502823L62.17641163885767,305.2051115208033L63.49780473891464,332.12722939968637L64.8191978389716,318.66604505083836L66.14059093902857,283.0580173058646L67.46198403908552,311.4060752159757L68.78337713914249,343.22553127160813L70.10477023919945,319.2909487224714L71.42616333925642,337.28877011633415L71.69311144027803,338.7184005166704L73.01450454033498,318.1149592852347L74.33589764039195,299.9211799933199L75.65729074044891,311.2802132832461L76.97868384050588,320.6094278011569L78.30007694056285,306.82623243795655L79.62147004061981,309.9783022780376L80.94286314067678,327.62763285601477L82.26425624073373,336.0886959341314L83.5856493407907,329.4020216076633L84.90704244084766,328.81646842602146L86.22843554090463,329.09023979133315L87.5498286409616,323.55794852764404L88.87122174101854,332.8967993991101L90.19261484107551,337.6832072554007L91.51400794113248,336.8261760343069L92.83540104118944,315.54112327779916L94.1567941412464,338.8138449679011L95.47818724130337,329.92407202620586L96.79958034136033,325.4490487102934L98.1209734414173,332.2034642870043L98.3879215424389,329.9665901999467L99.70931464249585,318.4259360257946L101.03070774255283,313.96906813318947L102.35210084260979,318.5486513225071L103.67349394266675,336.7256687264076L104.99488704272372,317.4499772228596L106.31628014278068,330.4835786388096L107.63767324283765,331.22728623685515L108.95906634289462,328.76353162466535L110.28045944295157,340.0337855786702L111.60185254300855,337.87356207164856L112.9232456430655,337.4239544406084L114.24463874312245,313.6207351752981L115.56603184317943,321.44259878643186L116.88742494323638,307.00237038785167L118.20881804329335,329.4355523996027L119.53021114335031,341.81649520058915L120.85160424340728,309.0913753838145L122.17299734346425,320.75177361643335L123.49439044352121,341.71286493537184L124.81578354357816,329.02979421138764L125.08273164459979,344.3137051836768L126.40412474465674,313.12192496145275L127.72551784471372,343.94779079168467L129.04691094477067,317.8417772564346L130.36830404482762,328.6678451245102L131.6896971448846,334.77183314590843L133.01109024494156,322.5629906381218L134.3324833449985,338.5294778232252L135.6538764450555,338.3989643416007L136.97526954511244,331.6821522930789L138.29666264516942,335.87259798698983L139.61805574522637,337.7229813310096L140.93944884528335,335.24505808685416L142.2608419453403,313.12016396782894L143.58223504539728,298.14196955693836L144.90362814545423,317.2929155345711L146.22502124551121,317.3785271867427L147.54641434556817,328.5584583044388L148.86780744562512,321.9952526081109L151.51059364573905,342.31408990787935L151.77754174676068,331.1561378849049L153.09893484681763,330.4236276805792L154.42032794687458,324.40025422884827L155.74172104693156,340.105694279959L157.0631141469885,339.36572002347555L158.38450724704546,346.33810942649205L159.70590034710244,334.0924211088884L161.0272934471594,328.8470420115368L162.34868654721635,336.28648936986013L163.67007964727333,339.4270478542107L164.99147274733028,333.39131061358086L166.31286584738726,338.17470162820507L167.6342589474442,338.6359749650144L168.9556520475012,340.7358151582993L170.27704514755814,327.0868078600322L171.59843824761512,328.6873914521439L172.91983134767207,343.18679730478306L174.24122444772905,313.1841701225318L175.562617547786,339.0452060291012L176.88401064784296,334.9662878850604L178.20540374789994,339.3956867327022L178.47235184892153,334.4148846494907L179.79374494897849,338.5464308948102L181.11513804903547,334.4225951355171L182.43653114909245,338.97796466250674L183.75792424914937,332.6327099907742L185.07931734920635,342.401651106279L186.40071044926333,344.6915185604739L187.72210354932025,329.63699147800793L189.04349664937723,336.5401697974582L190.3648897494342,326.4819942491239L191.68628284949116,337.9450506952751L193.00767594954812,330.39727241146363L194.3290690496051,339.08071969284526L195.65046214966208,342.5788089942142L196.97185524971903,323.0246972074262L198.29324834977598,345.47591887995554L199.61464144983296,338.89278361186365L200.9360345498899,339.1223459689191L202.2574276499469,330.402990378808L203.57882075000384,342.90742855809475L204.9002138500608,333.56434577690163L205.16716195108242,345.72516963683944L206.48855505113937,342.7934164987942L207.80994815119632,340.6856531496852L209.1313412512533,344.4540426944718L210.45273435131028,341.85486609402767L211.7741274513672,344.23266615140295L213.0955205514242,339.3044413041164L214.41691365148117,317.24819261084497L215.7383067515381,347.00391783161723L217.05969985159507,342.98367747723444L218.38109295165205,332.2419237563173L219.70248605170903,338.1530514043046L221.02387915176595,327.5209103280894L222.34527225182293,339.4115742628266L223.6666653518799,339.4057177312429L224.98805845193687,337.4637872744707L226.30945155199382,340.10211879639104L227.6308446520508,339.4025561864152L228.95223775210775,345.2089704879474L230.27363085216473,343.6031464489237L231.59502395222168,313.23585633777856L231.86197205324328,341.0159657405532L233.18336515330026,332.80304753637245L234.5047582533572,330.3489678652475L235.82615135341416,340.1208425084773L237.14754445347114,341.9338871749427L238.46893755352812,345.38944997117665L239.79033065358504,340.951063303239L241.11172375364202,344.16939973680053L242.433116853699,342.08624820296035L243.75450995375598,337.51409398624617L245.0759030538129,341.91331126239146L246.3972961538699,346.0171393979124L247.71868925392687,342.78199284194943L249.0400823539838,335.3113181029182L250.36147545404077,348.7782000291197L251.68286855409775,339.6858104322322L253.0042616541547,344.15826548627837L254.32565475421166,342.985003045891L255.64704785426864,341.657396267187L256.96844095432556,335.7374531272141L258.28983405438254,344.9573615080284L258.55678215540416,343.8482095840178L259.8781752554611,341.3902873862182L261.19956835551807,342.53691611352804L262.52096145557505,346.4418769404654L263.842354555632,337.53043404262047L265.16374765568895,338.7029418340968L266.48514075574593,343.6367750251207L267.8065338558029,345.9427075996834L269.12792695585983,337.8826301364248L270.4493200559168,334.80078254806153L271.7707131559738,334.7271453017365L273.0921062560308,332.9618474165745L274.4134993560877,335.8120927718021L275.7348924561447,342.94084007954973L277.05628555620166,337.9558771227086L278.37767865625864,345.4119635906063L279.6990717563156,338.3959273291906L281.02046485637254,333.4509721654886L282.3418579564295,343.43988313393646L283.6632510564865,336.7169891676948L284.9846441565434,337.79436033102905L285.25159225756505,338.47488526690796L286.57298535762203,349.35070400025944L287.894378457679,347.64705432082417L289.21577155773593,344.8499031864524L290.5371646577929,345.36684602189473L291.8585577578499,339.13213667251307L293.1799508579068,343.264645851597L294.5013439579638,343.75410297928767L295.8227370580208,341.3914037930325L297.1441301580777,342.20580633978943L298.4655232581347,332.42170822587775L299.78691635819166,343.8709126330405L301.1083094582486,345.2317507119895L302.42970255830556,344.88598338499776L303.75109565836254,344.4715009116382L305.07248875841947,345.22844139453946L306.39388185847645,343.7486196064624L307.7152749585334,339.00012967886596L309.03666805859035,341.81511657410675L310.35806115864733,346.5672335083665L311.6794542587043,338.5014711840928L311.94640235972594,344.4135608888557L313.26779545978286,332.4418140724019L314.58918855983984,340.90811540495844L315.9105816598968,345.76094902820694L317.23197475995374,333.5387078846707L318.5533678600107,340.50456372070624L319.8747609600677,346.3434195940182L321.1961540601246,338.25618529382916L322.5175471601816,345.5386270911508L323.8389402602386,323.36150302378775L325.1603333602955,340.9793330390283L326.4817264603525,343.27582921349506L327.80311956040947,344.3007932767425L329.12451266046645,336.78347369290617L330.4459057605234,342.531880443514L331.76729886058035,347.1878294107364L333.08869196063733,338.65277631752724L334.4100850606943,340.6236149579763L335.7314781607513,342.45738813305394L337.0528712608082,339.5634503160066L338.3742643608652,339.8038320845847L338.6412124618868,336.33978485965855L339.96260556194375,347.68396305459163L342.6053917620577,341.93121498989694L343.9267848621147,334.1874253117132L345.2481779621716,343.8617814250666L346.5695710622286,349.1918197646917L349.2123572623425,344.3440849546548L350.5337503623995,345.19181658591424L351.85514346245645,341.83508911832473L353.17653656251343,343.17500531261857L354.4979296625704,339.35136196191695L355.8193227626273,339.51390132260315L357.14071586268426,340.3716841231469L358.46210896274124,344.0133961355674L359.7835020627982,332.08672479236L361.1048951628552,344.03476660002264L362.4262882629122,340.37500264897994L363.74768136296905,341.11783676612436L365.3360225640477,341.8073131272616L366.6574156641046,342.7456675250187L367.97880876416156,346.6925256175866L369.30020186421854,347.0602073613718L370.6215949642755,343.84473144621296L371.9429880643325,346.64849288409056L373.2643811643895,336.6927842752554L374.58577426444646,347.2291029180427L375.9071673645033,344.50727460257815L377.2285604645603,347.31963535468816L378.5499535646173,330.2990531674909L379.87134666467426,345.0907260804254L381.19273976473124,345.61115582356115L383.83552596484515,341.40792100115584L385.1569190649021,336.57808553368017L386.47831216495905,334.76181793316715L387.79970526501603,345.26766121319105L389.121098365073,338.30130812447385L390.44249146513,344.4342907129513L391.7638845651869,344.7826955839289L392.03083266620854,346.87319365342L393.3522257662655,347.388778471618L394.6736188663225,334.46044422058594L395.9950119663794,346.9315221822659L397.3164050664364,340.1482834897972L398.6377981664934,340.40289352558324L399.95919126655036,341.3075215628859L401.2805843666073,347.08771915954185L402.60197746666427,346.26495715500477L403.9233705667212,346.88504418459064L405.24476366677817,339.5539130621922L406.56615676683515,344.10793421881493L409.2089429669491,339.5514259217951L410.5303360670061,341.4066502443028L411.85172916706296,347.738188152578L413.17312226711994,343.18889243116126L414.4945153671769,340.8264466946856L415.8159084672339,339.833483077823L417.1373015672909,342.0218246015618L418.45869466734786,341.0692393056302L418.7256427683694,342.68327415282295L420.0470358684264,341.44469402089777L421.3684289684834,341.0163893261709L422.68982206854037,347.7033640213224L424.01121516859723,345.50106127348255L426.6540013687112,332.6580690005488L427.9753944687682,345.8923386216991L429.29678756882515,343.3858842990751L430.61818066888213,340.9770870705668L431.939573768939,343.90802987090865L433.260966868996,344.9175133268611L434.58235996905296,345.04215273712475L435.90375306910994,345.52686754757394L437.2251461691669,342.1610535984422L438.54653926922384,342.76264953723603L439.8679323692808,345.5942062599315L441.1893254693378,344.40737022451765L442.5107185693947,343.9227067179166L443.83211166945165,345.96795084692894L445.15350476950863,342.7216669709828L445.4204528705303,343.7745359426553L446.7418459705872,346.71829505814605L448.06323907064416,348.8223499502517L449.38463217070114,340.63040285172565L450.7060252707581,343.3544074150376L452.0274183708151,344.57473477789233L453.3488114708721,342.0927326585653L454.67020457092895,339.19780472109903L455.9915976709859,341.86699923485736L457.3129907710429,337.2716881273872L458.6343838710999,337.447351626311L459.95577697115687,328.57398802310973L461.27717007121385,349.0089881973493L462.5985631712708,342.9715127648059L463.9199562713277,346.22056222511094L465.2413493713847,340.2316360186745L466.56274247144165,338.20466746044286L467.88413557149863,343.5606598467817L469.2055286715556,344.0488041221542L470.5269217716126,347.41598441992437L471.8483148716695,341.84560947664727L472.11526297269114,344.30969559062487L473.4366560727481,346.6449007377343L474.75804917280504,339.72955551338333L476.079442272862,338.474872989064L477.40083537291895,346.2140190112526L478.7222284729759,343.7393436953272L480.0436215730329,345.65093866905863L481.3650146730899,342.54512736019143L482.6864077731468,344.1524107086724L484.0078008732038,345.62651891434933L485.3291939732608,344.8263437578114L486.65058707331775,341.73164565173386L487.9719801733747,348.396276534423L489.29337327343165,343.48346246419374L490.61476637348864,346.67987768429816L491.93615947354556,335.0286137291142L493.25755257360254,349.11313807846415L494.5789456736595,342.923521742106L495.9003387737165,341.0003369221415L497.2217318737735,346.37924020386197L498.5431249738304,348.588980913441L498.810073074852,332.1247422592893L500.131466174909,339.10222959852865L501.452859274966,342.05983154462484L502.77425237502285,347.45309595736495L504.09564547507983,342.6615213212263L505.4170385751368,345.64263358458754L506.7384316751938,347.7070598716109L508.0598247752508,347.0846760082098L509.38121787530775,349.44625506044804L510.70261097536473,345.0944278503887L512.0240040754217,344.28136797357104L513.3453971754786,345.6571889686389L514.6667902755356,343.32548256857245L515.9881833755925,344.5906293239276L517.3095764756495,344.23634643513924L518.6309695757064,341.32268382322593L519.9523626757634,341.1219358120397L521.2737557758204,344.82656826695865L522.5951488758774,340.0127334611699L523.9165419759344,345.09562274770565L525.2379350759913,347.8661837991955L525.5048831770129,338.2238112501914L526.8262762770698,340.83626370794525L528.1476693771268,334.62922598795274L529.4690624771838,343.5028211162121L530.7904555772408,342.2016722143199L532.1118486772976,346.66405834005735L533.4332417773546,342.5213635931468L534.7546348774116,346.524320470393L536.0760279774686,335.3621010196428L538.7188141775825,345.99209522713727L540.0402072776394,347.92362262284644L541.3616003776964,344.85193516963295L542.6829934777534,346.96903888855815L544.0043865778104,346.8571565966956L545.3257796778673,345.0132537618309L546.6471727779243,341.8923845542976L547.9685658779812,347.32352063456966L549.2899589780382,348.2718353236409L550.6113520780951,343.89188055961057L551.9327451781521,336.54454860281874L552.1996932791737,339.4501933441115L554.8424794792877,347.03404393356857L557.4852656794017,348.9974893387101L558.8066587794586,343.6827380110899L560.1280518795155,347.8491480714107L561.4494449795725,344.08862073172264L562.7708380796295,346.5537855419937L564.0922311796865,346.9385630873003L565.4136242797434,346.5163571923287L566.7350173798004,342.7837108631193L568.0564104798573,339.6425643577404L569.3778035799143,344.9352872600158L570.6991966799712,342.70293887395223L572.0205897800282,340.675515158504L573.3419828800852,347.19285477613136L574.6633759801422,343.8521783970879L575.984769080199,344.0336896577068L577.306162180256,345.96496031492825L578.627555280313,347.96878513723686L578.8945033813346,335.76426706150164L580.2158964813916,347.9773706388948L581.5372895814486,336.55191881716877L582.8586826815056,346.1301779995822L584.1800757815626,348.13437510366043L585.5014688816195,346.294101248684L586.8228619816764,347.4940445402999L588.1442550817334,335.43205666674817L589.4656481817904,345.5751107045701L590.7870412818473,340.52313659070927L592.1084343819043,348.7514707242568L593.4298274819613,343.84439512098646L596.0726136820751,336.97140714292124L597.3940067821321,340.9393388392164L598.7153998821891,345.5070581232833L600.0367929822461,343.82690226276026L601.3581860823031,341.880348759231L602.67957918236,348.20049282828256L604.000972282417,341.30295946685436L605.3223653824739,347.5776998495799L605.5893134834955,343.6492273898941L606.9107065835525,348.06562487773834L608.2320996836094,346.26923861460216L609.5534927836663,342.06633354000695L610.8748858837233,345.4755816777402L612.1962789837803,338.16600803767057L613.5176720838373,340.4486223555278L614.8390651838943,340.321252001965L616.1604582839511,344.53757851402014L617.4818513840081,345.90275374135894L618.8032444840651,339.9038219690587L620.1246375841221,346.0247253515211L621.446030684179,339.1255776728553L622.767423784236,341.1719364547042L624.088816884293,341.14032100642737L625.41020998435,344.8561359462556L626.731603084407,342.2772563759063L628.0529961844638,345.38657081676075L629.3743892845208,331.36939526514027L630.6957823845778,333.09570748767544L632.0171754846348,347.6301964025301L632.2841235856564,348.57704246413743L634.9269097857704,343.07038273451013L636.2483028858272,344.6193739491827L637.5696959858842,341.4922136620873L638.8910890859412,345.1239148467108L640.2124821859982,342.6426695687669L641.5338752860551,342.5309780219807L644.176661486169,345.13041026467647L645.498054586226,341.63972406473965L646.819447686283,346.3498417834144L648.1408407863399,349.0456577324062L649.4622338863969,328.06958262035994L650.7836269864539,346.83419965939896L652.1050200865109,337.819075630983L653.4264131865677,342.5391848836998L654.7478062866247,346.21388483195756L656.0691993866817,344.61811020824047L658.7119855867957,348.4925649778045L658.9789336878173,347.3935280240176L660.3003267878743,345.12912152955187L661.6217198879312,344.93701229709654L662.9431129879882,342.34594214314745L664.2645060880451,346.91830990664823L665.5858991881021,346.2952356337699L666.907292288159,348.3717507736857L668.228685388216,343.30349031901795L669.550078488273,346.1658258426213L670.87147158833,349.5246295813286L672.192864688387,340.45289329125893L676.1570439885578,347.2139275028698L677.4784370886148,345.08883704642847L678.7998301886718,348.2641680293157L680.1212232887287,345.4338067520552L681.4426163887856,340.5804495664593L682.7640094888426,346.47264740997906L684.0854025888996,342.45636381006955L685.4067956889565,343.6171651157949L685.6737437899782,342.8638163407554L686.995136890035,340.37084045986694L688.316529990092,341.7772990606367L689.637923090149,340.6301397550687L690.959316190206,340.2277255253634L692.280709290263,342.1537605591115L693.6021023903199,348.122851470086L696.2448885904339,345.5676606842341L697.5662816904908,345.51784947116255L698.8876747905477,343.7607435389091L700.2090678906047,345.20146960225776L701.5304609906617,346.7342124058915L702.8518540907187,345.94172142571426L704.1732471907757,344.5699788673236L705.4946402908326,343.29968594135846L706.8160333908896,335.1405859123346L708.1374264909466,342.41543561712547L709.4588195910035,344.9110078235236L710.7802126910605,338.8486438857271L712.1016057911174,345.2091454472243L712.3685538921391,342.33281625093224L713.689946992196,348.1332740441511L715.011340092253,343.13178554779245L716.3327331923099,340.766710598725L717.6541262923668,345.30678938650715L718.9755193924237,347.12812203616085L720.2969124924807,342.89484069854296L721.6183055925377,344.8880828963202L722.9396986925947,343.0975917522775L724.2610917926517,345.5057821044971L725.5824848927086,340.4164386184719L726.9038779927656,345.0631325030444L728.2252710928226,342.60127657172893L729.5466641928796,342.567406385102L730.8680572929366,347.2061584778373L732.1894503929935,341.80449536206567L733.5108434930504,346.3972693407739L734.8322365931074,344.1398605596414L736.1536296931644,339.70467095458014L737.4750227932213,346.004719920221L738.7964158932783,336.5416054282163L739.0633639942998,337.8649202234566L740.3847570943568,344.5193046972172L741.7061501944138,348.29181598000577L743.0275432944708,347.5067626326969L744.3489363945278,332.76991489737384L745.6703294945847,345.76341731334355L746.9917225946417,340.5395669769358L748.3131156946987,344.67110883731095L749.6345087947557,340.4919359581615L750.9559018948127,336.5451116296646L752.2772949948696,344.17432972965736L753.5986880949264,346.48595089243776L754.9200811949834,342.4346732446817L756.2414742950403,348.8639136312459L757.5628673950973,331.10113665178056L760.2056535952113,326.6752668072973L761.5270466952683,340.94772109870684L762.8484397953252,348.41854317186596L764.1698328953822,345.68526664386866L765.4912259954392,345.7556835871125L765.7581740964608,341.9873650784233L767.0795671965178,339.69586423248313L768.4009602965747,343.9798732365276L769.7223533966317,338.7030970611244L771.0437464966886,340.7910216068161L772.3651395967456,345.35193545735655L773.6865326968025,347.5057170427327L776.3293188969164,345.36497628165273L777.6507119969734,346.2607362076384L778.9721050970304,347.94065528117017L780.2934981970874,341.6713991482588L781.6148912971444,344.27199778613374L782.9362843972013,338.92512169895826L784.2576774972583,336.75995986768567L785.5790705973153,345.4551693236107L786.9004636973723,345.8661859370094L788.2218567974293,344.34973188590186L789.543249897486,346.4357301255702L790.864642997543,346.3808819270013L792.1860360976,341.20245391293275L792.4529841986217,348.54782525151234L793.7743772986786,333.80800134488106L795.0957703987356,343.74777901264343L796.4171634987925,340.1863526990691L797.7385565988495,345.56555064904535L799.0599496989064,340.13822968954634L800.3813427989634,344.67206826311997L801.7027358990204,343.5343392187259L803.0241289990773,345.20065575659896L804.3455220991343,347.28057777897504L805.6669151991913,342.00262819248184L806.9883082992483,344.55282803475137L808.3097013993053,346.6928226975617L809.6310944993621,340.0408409540207L810.9524875994191,345.39140565632664L812.2738806994761,345.0202771270882L813.5952737995331,344.4298781435198L814.91666689959,344.3142721569725L816.238059999647,343.49241125848545L817.559453099704,346.0013500905399L818.880846199761,346.3710684216971L819.1477943007825,344.36785486062143L820.4691874008395,339.31434777023946L821.7905805008965,346.43399697634254L823.1119736009534,340.10795252626446L824.4333667010104,346.55269566409225L825.7547598010674,334.0807869747181L828.3975460011814,343.18523056419093L829.7189391012381,344.02950115892816L831.0403322012951,340.4340731103984L832.3617253013521,345.5438307045308L833.683118401409,338.8293106663855L836.325904601523,342.9312374900655L837.64729770158,346.77452561039996L838.968690801637,342.8788834478045L840.290083901694,342.06332546822915L841.6114770017509,347.93451942863567L842.9328701018079,346.3531366305482L844.2542632018649,345.44859629213124L845.5756563019219,335.607053654141L845.8426044029435,307.9377947658392L847.1639975030005,346.4751602023002L848.4853906030575,346.9766081793786L849.8067837031142,346.1153261932974L851.1281768031712,343.9509619833898L852.4495699032282,286.35590232913836L853.7709630032851,340.2670540906332L855.0923561033421,343.4738638211593L856.4137492033991,342.0021949599867L857.7351423034561,344.86535660709285L859.0565354035131,343.663654295078L860.37792850357,340.5830033580094L861.699321603627,340.5975262934731L863.020714703684,346.6962642210819L864.342107803741,340.30088832071704L865.663500903798,346.15699368784743L866.9848940038547,345.00579584859526L868.3062871039117,345.79540241242347L869.6276802039687,347.35516677745653L870.9490733040257,347.74790869706345L872.2704664040826,345.11088059983103L872.5374145051043,345.0534996574446L873.8588076051612,347.27500254156706L875.1802007052182,344.78465960047305L876.5015938052752,345.3096268839523L877.8229869053322,346.6144098084187L879.1443800053892,346.68398111515774L880.465773105446,348.3997626747512L881.787166205503,342.99551288034735L883.10855930556,336.7339895966781L884.429952405617,343.23369384539006L885.751345505674,341.2844067675951L887.0727386057308,345.64654013144883L888.3941317057878,342.5766787882818L889.7155248058448,344.6387080455131L891.0369179059018,345.2351933317457L892.3583110059587,343.4330000868962L893.6797041060157,342.6764941519733L895.0010972060727,345.0735471842098L896.3224903061297,345.36736081435356L897.6438834061867,330.2298903183118L898.9652765062436,340.11981993947063L899.2322246072652,340.31639962262193L900.5536177073221,340.9470247695548L901.8750108073791,341.64167799591195L903.1964039074361,343.95744512351143L904.5177970074931,342.1857995930061L905.8391901075499,343.38162125624365L907.1605832076069,341.0043193285389L908.4819763076639,344.16088812145375L909.8033694077209,342.92514460998495L911.1247625077777,341.07146861130343L912.4461556078347,342.5688762184255L913.7675487078917,344.06524547074144L915.0889418079487,341.29629873648923L916.4103349080057,347.2116810959139L917.7317280080626,345.38802661826253L919.0531211081196,346.27175864208135L920.3745142081766,334.79168115770875L921.6959073082336,347.3100266262819L923.0173004082905,345.5550618623216L925.6600866084044,343.6537298506834L925.9270347094259,343.09353655580503L927.2484278094829,348.3334827071906L929.8912140095969,343.5216934779096L931.2126071096538,338.2877147971981L932.5340002097108,340.5737037681751L933.8553933097678,347.5562364243059L935.1767864098248,338.9896005506548L936.4981795098818,349.19723752778816L937.8195726099387,341.8439782773742L939.1409657099957,342.9571213776707L940.4623588100527,344.3444436430972L941.7837519101097,341.8966923235608L943.1051450101664,348.0126744830549L944.4265381102234,342.0052565280848L945.7479312102804,342.84709260175634L947.0693243103374,343.59959859050474L948.3907174103944,344.181017646677L949.7121105104513,342.2210738387923L951.0335036105083,330.20080761385253L952.3548967105653,344.5078547307067L952.6218448115869,341.50680587967065L953.9432379116439,347.41410832151314L955.2646310117009,256.4273456257072L956.5860241117579,346.8302133065517L957.9074172118148,346.30823129313995L959.2288103118718,346.60569582789327L960.5502034119288,346.33175915018217L961.8715965119857,341.5455863269051L963.1929896120425,342.208602180264L964.5143827120995,347.16148269226215L965.8357758121565,345.3475755072564L967.1571689122135,345.3003509728171L968.4785620122705,341.5165018684681L969.7999551123274,334.14181312128653L971.1213482123844,346.3857343063444L972.4427413124414,339.37724365705L973.7641344124984,347.4462089638748L975.0855275125554,338.7768202523573L976.4069206126123,343.0153275665711L977.7283137126693,345.38869444527677L979.0497068127261,339.5725894168802L979.3166549137478,343.778638496526L981.9594411138618,343.9296051122618L984.6022273139756,349.1093877452429L985.9236204140326,346.5513992553152L987.2450135140896,336.05108977497576L988.5664066141466,313.6411023645014L989.8877997142035,342.4380908702555L991.2091928142605,342.534569291348L992.5305859143174,339.52307024109786L993.8519790143744,345.0421316893922L995.1733721144313,343.874503025419L997.8161583145453,347.1675514551492L999.1375514146022,345.91433964114213L1000.4589445146592,336.52656945427157L1001.7803376147161,337.4399182687633L1003.1017307147731,345.5111988261693L1004.4231238148301,346.9856091545073L1006.0114650159086,344.04845113413944L1007.3328581159656,344.9640003136721L1008.6542512160225,339.3467393536543L1009.9756443160795,344.91846836772584L1011.2970374161365,344.1255305617262L1012.6184305161935,344.8799023442668L1013.9398236162505,341.5636014319954L1015.2612167163074,342.88252689800885L1016.5826098163644,344.0343995801862L1017.9040029164214,345.10267066865094L1019.2253960164783,345.4483880072778L1020.5467891165353,343.02269602694344L1021.8681822165922,346.18425927139606L1023.1895753166491,346.2265915234994L1024.5109684167062,345.9844250825983L1025.832361516763,339.1622498388787L1027.1537546168202,343.80056628739953L1029.796540816934,334.45176729283975L1031.117933916991,346.27480135491896L1032.439327017048,348.1101298697336L1032.7062751180695,347.3195364741946L1034.0276682181266,345.60974825644644L1035.3490613181834,344.5608046868957L1036.6704544182405,344.2283171636636L1037.9918475182974,344.9164394540063L1039.3132406183543,339.735351532736L1040.6346337184114,347.55309132301926L1041.9560268184682,347.7528546949669L1043.2774199185253,341.43802364365524L1044.5988130185822,344.14678087870806L1045.9202061186393,340.5283520434389L1047.2415992186961,346.18635615175197L1048.562992318753,298.53195246960274L1049.88438541881,341.5389387513728L1051.205778518867,342.6123801276411L1052.527171618924,343.7589365033703L1053.848564718981,344.2322666829788L1055.169957819038,334.8676248847263L1056.4913509190949,344.9464035322664L1057.8127440191518,317.66328546844863L1059.1341371192088,339.1931075687836L1059.4010852202302,342.9755552449399L1060.7224783202873,346.0303828066344L1062.0438714203442,345.48694613783715L1063.3652645204013,339.3355551147674L1064.6866576204582,341.9265967665786L1066.0080507205153,341.5029523906352L1067.3294438205721,345.2937858342374L1068.6508369206292,346.1497523908593L1069.972230020686,336.84859888538995L1071.2936231207432,346.48208074061404L1072.6150162208,344.8259271881046L1073.9364093208571,346.7656414940364L1075.257802420914,340.6590435538012L1076.5791955209709,341.0838420470798L1077.900588621028,338.6051663464855L1079.2219817210848,344.81990972906567L1080.5433748211417,346.10409284303444L1081.8647679211988,344.1345547770596L1083.1861610212557,344.0599133784939L1084.5075541213128,341.7848762443569L1086.0958953223912,336.823920418968L1087.4172884224483,338.6124795565599L1088.7386815225052,340.0848754414945L1090.0600746225623,338.2330617286498L1091.3814677226192,341.00160417103916L1094.0242539227331,344.0960492658316L1095.3456470227902,332.96604643921944L1096.6670401228469,343.2255724900844L1097.988433222904,346.76529508343805L1099.3098263229608,336.55258620568856L1100.631219423018,346.57000347766973L1101.9526125230748,344.8898184572672L1103.2740056231319,344.0816644561129L1104.5953987231887,342.32124964490384L1105.9167918232458,344.68175898998436L1107.2381849233027,346.06396314844426L1109.8809711234167,345.86397636358544L1111.2023642234738,344.22130563775585L1112.5237573235304,345.0103575061323L1112.7907054245522,342.7966920521732L1114.112098524609,347.1238230367863L1115.433491624666,346.33579943784406L1116.754884724723,343.5723742254324L1118.07627782478,336.591990192L1119.397670924837,340.3674508979366L1120.719064024894,345.3326557343352L1122.040457124951,344.60151275563675L1123.3618502250079,340.8888409438702L1124.683243325065,345.1320015609566L1126.0046364251218,343.1396302131139L1127.326029525179,347.23389785461563L1128.6474226252358,343.36835855376677L1129.9688157252926,345.68837600785935L1131.2902088253497,345.6594919413761L1132.6116019254066,342.13518155018653L1133.9329950254635,344.7263494883931L1135.2543881255206,345.56655874773594L1136.5757812255774,339.51611484247695L1137.8971743256345,348.3123056187782L1139.2185674256914,345.4736886972934L1139.485515526713,343.04913592548365L1140.8069086267699,346.1690838562232L1142.128301726827,345.95797027524753L1143.4496948268838,343.8867194801901L1144.771087926941,335.05400606446534L1147.413874127055,345.1660831018979L1148.7352672271118,342.85520299470124L1150.0566603271689,343.9229031634205L1151.3780534272257,345.8757135439464L1152.6994465272826,338.41236210036146L1154.0208396273397,332.0018340250284L1155.3422327273965,343.7402842658758L1156.6636258274536,334.3321284730358L1157.9850189275105,343.9900349064079L1159.3064120275676,332.0633600552451L1160.6278051276245,345.22502464595453L1161.9491982276813,339.86812589163253L1163.2705913277384,346.63174283542577L1164.5919844277953,348.7768926579819L1165.9133775278524,338.6197401473028L1166.180325628874,344.9399357394497L1167.5017187289309,344.20271303550356L1168.823111828988,343.6561617407825L1170.1445049290448,330.1763413787338L1171.465898029102,341.42899592036645L1172.7872911291586,347.9933649424125L1174.1086842292157,341.785284921164L1175.4300773292725,341.7485408420543L1176.7514704293296,348.1228911538318L1178.0728635293865,338.4737416734391L1179.3942566294436,342.7863685778489L1180.7156497295005,347.54074529314465L1182.0370428295575,343.21754234161983L1184.6798290296715,346.4175698788242L1186.0012221297284,342.9875156189649L1187.3226152297855,339.86040137378444L1188.6440083298423,343.09993155854664L1189.9654014298992,343.3024681885057L1191.286794529956,339.6612345735065L1192.6081876300132,343.1361845238967L1192.8751357310348,343.5071608955685L1194.1965288310917,336.43703590793365L1195.5179219311487,339.50487886124745L1196.8393150312056,345.03352799021553L1199.4821012313196,336.0438440930434L1200.8034943313767,342.01877268034116L1202.1248874314335,346.02817542568255L1203.4462805314906,344.8504811221089L1204.7676736315475,341.6100046663705L1206.0890667316046,335.2099785325941L1207.4104598316615,343.47679340243445L1208.7318529317183,346.42601440452347L1211.3746391318323,338.430161466193L1214.0174253319462,342.27754929018437L1216.6602115320602,340.77308893867837L1217.981604632117,347.5085352464231L1219.3029977321742,337.6570282610453L1219.5699458331956,344.9053538763657L1220.8913389332527,346.45025218404504L1222.2127320333095,342.9637693916974L1223.5341251333666,336.9205049557122L1224.8555182334235,339.0803662663361L1226.1769113334806,346.6397396583138L1227.4983044335374,347.8095125600411L1228.8196975335943,343.5649417448735L1230.1410906336514,347.31221120552345L1231.4624837337083,347.3827329489357L1232.7838768337654,345.09443662027724L1234.1052699338222,346.88496766731294L1235.4266630338793,339.73748436963496L1236.7480561339362,348.5761135136912L1238.0694492339933,342.1915894734367L1239.3908423340501,345.44216971779076L1240.7122354341072,338.7692264058489L1242.033628534164,345.54543778661036L1243.355021634221,344.65509896724114L1244.676414734278,344.77590462071856L1245.997807834335,348.2298213088689L1247.5861490354137,345.06621380339175L1248.9075421354705,347.4243728183368L1250.2289352355274,341.44980774292003L1251.5503283355843,346.82955973060643L1252.8717214356413,347.4685528859608L1254.1931145356982,332.4835710198153L1255.5145076357553,344.99676856380086L1256.8359007358122,338.1955976416889L1258.1572938358693,341.7155792158827L1259.4786869359261,346.16841778318667L1260.8000800359832,344.6380568812872L1262.12147313604,341.141050661156L1263.4428662360972,346.70610798250163L1264.764259336154,344.667008037418L1266.085652436211,339.657374945549L1267.407045536268,339.5397567080705L1268.7284386363249,342.9821458161965L1270.049831736382,337.72279628636085L1271.3712248364388,344.5907836739663L1272.6926179364957,344.8117111987407L1272.9595660375173,330.3887866672881L1274.2809591375744,343.86186123105256L1275.6023522376313,337.2236501857835L1276.9237453376884,344.0348999023288L1278.2451384377453,339.9676562339457L1279.5665315378023,343.82803489386845L1280.8879246378592,347.4719538487463L1282.2093177379163,339.29954069038627L1283.5307108379732,346.2780273584276L1284.8521039380303,336.8324561515083L1286.173497038087,343.3258184553045L1287.494890138144,347.00820477239506L1288.8162832382009,346.4683080691171L1290.137676338258,346.4792941085225L1291.4590694383148,335.190165600348L1292.780462538372,312.99858174071903L1294.1018556384288,339.63299553232713L1295.4232487384859,337.83893328966076L1296.7446418385427,333.39957360258677L1298.0660349385998,344.009798727278L1299.3874280386567,345.7132268025916L1299.6543761396783,339.1705829869932L1300.9757692397352,339.0154550591333L1302.2971623397923,339.07179194628606L1303.6185554398492,340.60792036540033L1304.939948539906,345.3852360397212L1306.2613416399631,333.08054961227964L1307.58273474002,345.7209644752725L1308.904127840077,341.27361541971584L1311.546914040191,345.4759215109221L1312.868307140248,340.50958623588747L1314.189700240305,338.7429825143181L1315.5110933403619,348.8770639695255L1316.832486440419,343.91257793511846L1318.1538795404758,339.55875579465777L1319.475272640533,335.6876077115772L1322.1180588406467,340.95003985724344L1323.4394519407035,345.1370139907659L1324.7608450407606,346.69816553292276L1326.0822381408175,340.7445341815107L1326.349186241839,342.6117188780433L1327.6705793418962,347.4041880428156L1328.991972441953,339.5642185582449L1330.3133655420102,339.68639626078834L1331.634758642067,343.26758858770495L1332.956151742124,338.5426379180058L1334.277544842181,343.8991499202421L1335.5989379422379,342.12189779997715L1336.920331042295,334.15067947862576L1338.2417241423518,339.8625157939175L1339.563117242409,336.83489768848483L1340.8845103424658,344.4784269311324L1342.2059034425226,340.5445579205182" style="fill: none;" fill="none"></path></g></g></g></g></g></g><g transform="translate(46, 378)" clip-path="url(#clip_1)"><clipPath id="clip_1"><rect width="1385" height="22"></rect></clipPath><g><g><line x1="18.290143830905194" y1="0" x2="18.290143830905194" y2="5" style="visibility: inherit;" fill="rgb(0, 0, 0)" stroke="rgb(204, 204, 204)" stroke-width="1px"></line><line x1="151.76419434170955" y1="0" x2="151.76419434170955" y2="5" style="visibility: inherit;" fill="rgb(0, 0, 0)" stroke="rgb(204, 204, 204)" stroke-width="1px"></line><line x1="285.23824485251396" y1="0" x2="285.23824485251396" y2="5" style="visibility: inherit;" fill="rgb(0, 0, 0)" stroke="rgb(204, 204, 204)" stroke-width="1px"></line><line x1="418.71229536331833" y1="0" x2="418.71229536331833" y2="5" style="visibility: inherit;" fill="rgb(0, 0, 0)" stroke="rgb(204, 204, 204)" stroke-width="1px"></line><line x1="552.1863458741227" y1="0" x2="552.1863458741227" y2="5" style="visibility: inherit;" fill="rgb(0, 0, 0)" stroke="rgb(204, 204, 204)" stroke-width="1px"></line><line x1="685.660396384927" y1="0" x2="685.660396384927" y2="5" style="visibility: inherit;" fill="rgb(0, 0, 0)" stroke="rgb(204, 204, 204)" stroke-width="1px"></line><line x1="819.1344468957315" y1="0" x2="819.1344468957315" y2="5" style="visibility: inherit;" fill="rgb(0, 0, 0)" stroke="rgb(204, 204, 204)" stroke-width="1px"></line><line x1="952.6084974065358" y1="0" x2="952.6084974065358" y2="5" style="visibility: inherit;" fill="rgb(0, 0, 0)" stroke="rgb(204, 204, 204)" stroke-width="1px"></line><line x1="1086.0825479173402" y1="0" x2="1086.0825479173402" y2="5" style="visibility: inherit;" fill="rgb(0, 0, 0)" stroke="rgb(204, 204, 204)" stroke-width="1px"></line><line x1="1219.5565984281445" y1="0" x2="1219.5565984281445" y2="5" style="visibility: inherit;" fill="rgb(0, 0, 0)" stroke="rgb(204, 204, 204)" stroke-width="1px"></line><line x1="1353.030648938949" y1="0" x2="1353.030648938949" y2="5" style="visibility: inherit;" fill="rgb(0, 0, 0)" stroke="rgb(204, 204, 204)" stroke-width="1px"></line></g><g transform="translate(0, 8)"><text x="18.290143830905194" y="0" dx="0em" dy="0.95em" style="text-anchor: middle; visibility: inherit; font-family: &quot;Helvetica Neue&quot;, sans-serif; font-size: 12px; font-weight: 200;" fill="rgb(50, 49, 63)" stroke="none" stroke-width="1px">0</text><text x="151.76419434170955" y="0" dx="0em" dy="0.95em" style="text-anchor: middle; visibility: inherit; font-family: &quot;Helvetica Neue&quot;, sans-serif; font-size: 12px; font-weight: 200;" fill="rgb(50, 49, 63)" stroke="none" stroke-width="1px">10k</text><text x="285.23824485251396" y="0" dx="0em" dy="0.95em" style="text-anchor: middle; visibility: inherit; font-family: &quot;Helvetica Neue&quot;, sans-serif; font-size: 12px; font-weight: 200;" fill="rgb(50, 49, 63)" stroke="none" stroke-width="1px">20k</text><text x="418.71229536331833" y="0" dx="0em" dy="0.95em" style="text-anchor: middle; visibility: inherit; font-family: &quot;Helvetica Neue&quot;, sans-serif; font-size: 12px; font-weight: 200;" fill="rgb(50, 49, 63)" stroke="none" stroke-width="1px">30k</text><text x="552.1863458741227" y="0" dx="0em" dy="0.95em" style="text-anchor: middle; visibility: inherit; font-family: &quot;Helvetica Neue&quot;, sans-serif; font-size: 12px; font-weight: 200;" fill="rgb(50, 49, 63)" stroke="none" stroke-width="1px">40k</text><text x="685.660396384927" y="0" dx="0em" dy="0.95em" style="text-anchor: middle; visibility: inherit; font-family: &quot;Helvetica Neue&quot;, sans-serif; font-size: 12px; font-weight: 200;" fill="rgb(50, 49, 63)" stroke="none" stroke-width="1px">50k</text><text x="819.1344468957315" y="0" dx="0em" dy="0.95em" style="text-anchor: middle; visibility: inherit; font-family: &quot;Helvetica Neue&quot;, sans-serif; font-size: 12px; font-weight: 200;" fill="rgb(50, 49, 63)" stroke="none" stroke-width="1px">60k</text><text x="952.6084974065358" y="0" dx="0em" dy="0.95em" style="text-anchor: middle; visibility: inherit; font-family: &quot;Helvetica Neue&quot;, sans-serif; font-size: 12px; font-weight: 200;" fill="rgb(50, 49, 63)" stroke="none" stroke-width="1px">70k</text><text x="1086.0825479173402" y="0" dx="0em" dy="0.95em" style="text-anchor: middle; visibility: inherit; font-family: &quot;Helvetica Neue&quot;, sans-serif; font-size: 12px; font-weight: 200;" fill="rgb(50, 49, 63)" stroke="none" stroke-width="1px">80k</text><text x="1219.5565984281445" y="0" dx="0em" dy="0.95em" style="text-anchor: middle; visibility: inherit; font-family: &quot;Helvetica Neue&quot;, sans-serif; font-size: 12px; font-weight: 200;" fill="rgb(50, 49, 63)" stroke="none" stroke-width="1px">90k</text><text x="1353.030648938949" y="0" dx="0em" dy="0.95em" style="text-anchor: middle; visibility: inherit; font-family: &quot;Helvetica Neue&quot;, sans-serif; font-size: 12px; font-weight: 200;" fill="rgb(50, 49, 63)" stroke="none" stroke-width="1px">100k</text></g><line x1="0" y1="0" x2="1385" y2="0" fill="rgb(0, 0, 0)" stroke="rgb(204, 204, 204)" stroke-width="1px"></line></g></g></g></g></svg>