<svg viewBox="0 0 1431 400" xmlns="http://www.w3.org/2000/svg"><g><g><g><g><g><line x1="46" y1="375.9192660550459" x2="41" y2="375.9192660550459" style="visibility: inherit;" fill="rgb(0, 0, 0)" stroke="rgb(204, 204, 204)" stroke-width="1px"></line><line x1="46" y1="332.2238532110092" x2="41" y2="332.2238532110092" style="visibility: inherit;" fill="rgb(0, 0, 0)" stroke="rgb(204, 204, 204)" stroke-width="1px"></line><line x1="46" y1="288.5284403669725" x2="41" y2="288.5284403669725" style="visibility: inherit;" fill="rgb(0, 0, 0)" stroke="rgb(204, 204, 204)" stroke-width="1px"></line><line x1="46" y1="244.83302752293582" x2="41" y2="244.83302752293582" style="visibility: inherit;" fill="rgb(0, 0, 0)" stroke="rgb(204, 204, 204)" stroke-width="1px"></line><line x1="46" y1="201.13761467889907" x2="41" y2="201.13761467889907" style="visibility: inherit;" fill="rgb(0, 0, 0)" stroke="rgb(204, 204, 204)" stroke-width="1px"></line><line x1="46" y1="157.4422018348624" x2="41" y2="157.4422018348624" style="visibility: inherit;" fill="rgb(0, 0, 0)" stroke="rgb(204, 204, 204)" stroke-width="1px"></line><line x1="46" y1="113.74678899082568" x2="41" y2="113.74678899082568" style="visibility: inherit;" fill="rgb(0, 0, 0)" stroke="rgb(204, 204, 204)" stroke-width="1px"></line><line x1="46" y1="70.05137614678904" x2="41" y2="70.05137614678904" style="visibility: inherit;" fill="rgb(0, 0, 0)" stroke="rgb(204, 204, 204)" stroke-width="1px"></line><line x1="46" y1="26.355963302752286" x2="41" y2="26.355963302752286" style="visibility: inherit;" fill="rgb(0, 0, 0)" stroke="rgb(204, 204, 204)" stroke-width="1px"></line></g><g transform="translate(36, 0)"><text x="0" y="375.9192660550459" dx="0em" dy="0.3em" style="text-anchor: end; visibility: hidden; font-family: &quot;Helvetica Neue&quot;, sans-serif; font-size: 12px; font-weight: 200;" fill="rgb(50, 49, 63)" stroke="none" stroke-width="1px">0.7</text><text x="0" y="332.2238532110092" dx="0em" dy="0.3em" style="text-anchor: end; visibility: inherit; font-family: &quot;Helvetica Neue&quot;, sans-serif; font-size: 12px; font-weight: 200;" fill="rgb(50, 49, 63)" stroke="none" stroke-width="1px">0.8</text><text x="0" y="288.5284403669725" dx="0em" dy="0.3em" style="text-anchor: end; visibility: inherit; font-family: &quot;Helvetica Neue&quot;, sans-serif; font-size: 12px; font-weight: 200;" fill="rgb(50, 49, 63)" stroke="none" stroke-width="1px">0.9</text><text x="0" y="244.83302752293582" dx="0em" dy="0.3em" style="text-anchor: end; visibility: inherit; font-family: &quot;Helvetica Neue&quot;, sans-serif; font-size: 12px; font-weight: 200;" fill="rgb(50, 49, 63)" stroke="none" stroke-width="1px">1</text><text x="0" y="201.13761467889907" dx="0em" dy="0.3em" style="text-anchor: end; visibility: inherit; font-family: &quot;Helvetica Neue&quot;, sans-serif; font-size: 12px; font-weight: 200;" fill="rgb(50, 49, 63)" stroke="none" stroke-width="1px">1.1</text><text x="0" y="157.4422018348624" dx="0em" dy="0.3em" style="text-anchor: end; visibility: inherit; font-family: &quot;Helvetica Neue&quot;, sans-serif; font-size: 12px; font-weight: 200;" fill="rgb(50, 49, 63)" stroke="none" stroke-width="1px">1.2</text><text x="0" y="113.74678899082568" dx="0em" dy="0.3em" style="text-anchor: end; visibility: inherit; font-family: &quot;Helvetica Neue&quot;, sans-serif; font-size: 12px; font-weight: 200;" fill="rgb(50, 49, 63)" stroke="none" stroke-width="1px">1.3</text><text x="0" y="70.05137614678904" dx="0em" dy="0.3em" style="text-anchor: end; visibility: inherit; font-family: &quot;Helvetica Neue&quot;, sans-serif; font-size: 12px; font-weight: 200;" fill="rgb(50, 49, 63)" stroke="none" stroke-width="1px">1.4</text><text x="0" y="26.355963302752286" dx="0em" dy="0.3em" style="text-anchor: end; visibility: inherit; font-family: &quot;Helvetica Neue&quot;, sans-serif; font-size: 12px; font-weight: 200;" fill="rgb(50, 49, 63)" stroke="none" stroke-width="1px">1.5</text></g><line x1="46" y1="0" x2="46" y2="378" fill="rgb(0, 0, 0)" stroke="rgb(204, 204, 204)" stroke-width="1px"></line></g></g><g transform="translate(46, 0)" clip-path="url(#clip_0)"><clipPath id="clip_0"><rect width="1385" height="378"></rect></clipPath><g><g><g><line x1="25.24739583333333" y1="0" x2="25.24739583333333" y2="378" fill="rgb(0, 0, 0)" stroke="rgb(60, 60, 60)" stroke-width="1px" opacity="0.25"></line><line x1="242.43772644927535" y1="0" x2="242.43772644927535" y2="378" fill="rgb(0, 0, 0)" stroke="rgb(60, 60, 60)" stroke-width="1px" opacity="0.25"></line><line x1="459.6280570652173" y1="0" x2="459.6280570652173" y2="378" fill="rgb(0, 0, 0)" stroke="rgb(60, 60, 60)" stroke-width="1px" opacity="0.25"></line><line x1="676.8183876811593" y1="0" x2="676.8183876811593" y2="378" fill="rgb(0, 0, 0)" stroke="rgb(60, 60, 60)" stroke-width="1px" opacity="0.25"></line><line x1="894.0087182971014" y1="0" x2="894.0087182971014" y2="378" fill="rgb(0, 0, 0)" stroke="rgb(60, 60, 60)" stroke-width="1px" opacity="0.25"></line><line x1="1111.1990489130433" y1="0" x2="1111.1990489130433" y2="378" fill="rgb(0, 0, 0)" stroke="rgb(60, 60, 60)" stroke-width="1px" opacity="0.25"></line><line x1="1328.3893795289855" y1="0" x2="1328.3893795289855" y2="378" fill="rgb(0, 0, 0)" stroke="rgb(60, 60, 60)" stroke-width="1px" opacity="0.25"></line></g><g><line x1="0" y1="375.9192660550459" x2="1385" y2="375.9192660550459" fill="rgb(0, 0, 0)" stroke="rgb(60, 60, 60)" stroke-width="1px" opacity="0.25"></line><line x1="0" y1="332.2238532110092" x2="1385" y2="332.2238532110092" fill="rgb(0, 0, 0)" stroke="rgb(60, 60, 60)" stroke-width="1px" opacity="0.25"></line><line x1="0" y1="288.5284403669725" x2="1385" y2="288.5284403669725" fill="rgb(0, 0, 0)" stroke="rgb(60, 60, 60)" stroke-width="1px" opacity="0.25"></line><line x1="0" y1="244.83302752293582" x2="1385" y2="244.83302752293582" fill="rgb(0, 0, 0)" stroke="rgb(60, 60, 60)" stroke-width="1px" opacity="0.25"></line><line x1="0" y1="201.13761467889907" x2="1385" y2="201.13761467889907" fill="rgb(0, 0, 0)" stroke="rgb(60, 60, 60)" stroke-width="1px" opacity="0.25"></line><line x1="0" y1="157.4422018348624" x2="1385" y2="157.4422018348624" fill="rgb(0, 0, 0)" stroke="rgb(60, 60, 60)" stroke-width="1px" opacity="0.25"></line><line x1="0" y1="113.74678899082568" x2="1385" y2="113.74678899082568" fill="rgb(0, 0, 0)" stroke="rgb(60, 60, 60)" stroke-width="1px" opacity="0.25"></line><line x1="0" y1="70.05137614678904" x2="1385" y2="70.05137614678904" fill="rgb(0, 0, 0)" stroke="rgb(60, 60, 60)" stroke-width="1px" opacity="0.25"></line><line x1="0" y1="26.355963302752286" x2="1385" y2="26.355963302752286" fill="rgb(0, 0, 0)" stroke="rgb(60, 60, 60)" stroke-width="1px" opacity="0.25"></line></g></g></g><g><g><line x1="0" y1="681.7871559633029" x2="1385" y2="681.7871559633029" fill="rgb(0, 0, 0)" stroke="rgb(153, 153, 153)" stroke-width="1.5px"></line></g></g><g><g><line x1="25.24739583333333" y1="0" x2="25.24739583333333" y2="378" fill="rgb(0, 0, 0)" stroke="rgb(153, 153, 153)" stroke-width="1.5px"></line></g></g><g><g><g><g><g><path stroke="rgb(255, 112, 67)" stroke-width="2px" d="M26.541850203804344,119.00389126506423L27.401923913043476,80.67040458119243L28.69203447690217,94.72807735303127L32.562366168478256,117.11425893066126L33.42243987771739,324.93641581929063L34.28251358695652,183.2701426716026L35.572624150815216,217.09527507659496L36.862734714673906,188.09134343173528L37.722808423913044,244.2833844876071L41.59314011548913,295.22594909755463L42.883250679347825,131.54494096860972L43.31328753396739,233.5263827332663L45.03343495244565,209.73348585881226L46.97077270153985,207.11710791894058L47.83084641077898,162.15112998332455L48.26088326539854,155.16464194726507L49.12095697463767,158.4654692317368L49.55099382925724,156.05046733191253L50.411067538496376,149.08122075194612L55.14147293931159,176.84569485078165L59.87187834012681,132.35940443528904L60.301915194746364,185.2499931387945L60.73195204936593,131.57791330005054L62.4520994678442,132.46212392597027L63.742210031702896,130.51962126548136L64.17224688632245,133.9651517675557L67.18250486865942,97.98535824084502L69.97991632699275,131.27808906660167L70.40995318161231,166.16302408690848L70.83999003623188,161.011370766491L73.85024801856883,109.01515004219266L79.01069027400362,109.07187495362871L80.30080083786231,109.64823964145211L81.59091140172102,109.61354837330111L82.02094825634057,101.19377965489656L85.03120623867753,91.30072590889188L85.89127994791666,94.10363452631401L92.98905995244564,96.04759567855695L93.4190968070652,93.30333926524594L93.84913366168477,98.32096761126041L97.71946535326087,97.46941678283412L99.43961277173914,103.92751409198166L99.8696496263587,85.6738126326045L103.73998131793478,105.58967380173709L104.17001817255435,91.03340520596282L105.46012873641304,88.69627634800901L107.61031300951086,59.43351450578882L108.04034986413043,103.69342616544952L110.62057099184781,81.6482191243303L111.05060784646739,91.2572316012251L113.41798245018116,82.78917638796185L114.70809301403985,83.36298871521558L116.85827728713767,94.76292488815591L118.57842470561593,93.12983083549989L119.0084615602355,98.63475169435554L120.29857212409419,92.28229085939739L120.72860897871375,98.85961986944216L122.01871954257246,88.17663657162171L122.87879325181159,96.93039990171377L125.45901437952897,94.36366277047256L125.88905123414855,79.97152658602516L126.3190880887681,224.56530521812792L126.74912494338768,283.32132268870646L128.46927236186593,83.55155086342347L129.75938292572462,91.52533363902245L130.61945663496377,102.24368536187973L135.99708922101448,89.05579456539334L136.85716293025362,96.08364126047957L137.71723663949274,95.87314964696901L142.44764204030795,86.4187893849994L143.30771574954707,84.36512881725207L143.73775260416667,126.36088829565486L144.5978263134058,81.93679213567611L145.02786316802536,89.60517715576594L146.74801058650363,95.70234984476633L148.03812115036231,94.1911961205509L149.75826856884058,94.09019556657984L151.90845284193838,89.73342025214379L152.76852655117753,81.0830014806275L153.1985634057971,87.46249650202765L154.05863711503622,89.63450325782145L157.28608542798912,86.25033358740149L158.14615913722824,83.47320902063217L159.00623284646738,154.59999728246567L159.8663065557065,79.13742556965678L165.0267488111413,95.29668078116322L165.8868225203804,91.65670207487335L166.31685937499998,87.99677328494715L167.60696993885867,93.49002620977001L168.03700679347827,95.28042901590334L169.7571542119565,87.34237928827969L170.18719106657608,85.48332319172152L170.61722792119562,92.17108086314772L171.90733848505434,85.34023473284662L172.3373753396739,89.27576637530547L173.19744904891306,152.6182195225987L173.6274859035326,87.02416764093101L174.48755961277175,87.16277644656122L177.06778074048913,87.18184101734687L177.28497107110508,87.0438572796113L178.14504478034416,84.66833883513004L178.57508163496374,85.41998297840087L179.4351553442029,94.6169194457728L180.29522905344203,87.26752740789993L181.15530276268112,92.04919262369839L181.58533961730072,92.18894738713533L182.0153764719203,89.6162721108953L182.44541332653986,95.55077088032294L183.30548703577898,85.30788746930045L185.02563445425724,260.87995282488134L186.7457818727355,87.02286541615058L187.17581872735508,88.08704350672735L188.0358924365942,91.02710243802551L188.46592929121377,95.2496444220937L188.8959661458333,89.62939853668212L189.32600300045289,98.85753630979343L189.75603985507246,85.29934487474077L194.48644525588767,86.06765749520122L195.77655581974636,87.73950575732312L196.20659267436594,97.08270811203425L196.63662952898548,221.33630865254534L199.43404098731884,90.06111209589409L200.29411469655795,87.69272984320963L202.01426211503622,94.87007194309064L203.3043726788949,87.68064519724715L205.88459380661232,138.11377947308605L206.31463066123186,107.73678201972893L206.74466751585143,89.62502306141982L208.03477807971012,87.25742214360366L208.89485178894927,89.77128894875904L209.75492549818838,90.04558957651125L210.18496235280796,85.68501176571624L211.90510977128622,87.3795708280091L212.76518348052534,89.03256287531025L214.05529404438403,85.05619346373675L214.4853308990036,84.66875554705979L215.34540460824272,188.7206305346358L215.7754414628623,89.28477777078615L217.92562573596012,86.80054960163363L219.21573629981881,85.61187882204672L219.6457731544384,83.08879226544582L221.15307404891303,82.39642539418071L223.30325832201083,141.45450692483047L223.7332951766304,89.01579022013817L225.88347944972824,88.83129101324516L226.3135163043478,87.61042923708578L228.46370057744562,92.26822683176863L228.8937374320652,86.86878618012878L230.18384799592388,153.40715938358136L231.043921705163,85.21678382366076L232.76406912364126,87.44176508352297L233.19410597826086,86.71095653673927L235.3442902513587,89.10507075108518L236.6344008152174,90.62664227354418L237.92451137907608,83.83470661968272L238.35454823369565,221.74124847027144L240.07469565217392,92.56680092942827L240.93476936141303,88.45843801410922L243.30214396512682,87.28086218965166L243.73218081974633,84.47441152082672L244.16221767436593,95.99623593321633L245.45232823822462,86.77544270786672L245.8823650928442,91.43673026496117L247.60251251132246,86.86607755258547L248.03254936594203,88.76420039255686L248.46258622056158,94.58545769507731L251.04280734827898,88.55073970654689L251.47284420289853,81.32224621729023L252.76295476675725,83.0226392465994L253.62302847599636,91.02507096736804L254.91313903985505,87.08412206982251L255.7732127490942,91.72124033499199L256.6332864583333,86.47249313494484L258.7834707314312,84.80522870405002L259.2135075860507,87.2285127534779L259.64354444067027,85.51811863785491L260.07358129528984,82.28667388968512L260.5036181499094,75.90332428293493L260.93365500452893,84.51368662020485L265.02117702672103,87.16116168783344L266.3112875905797,85.99494126346139L268.4614718636775,86.1777215336441L269.32154557291665,86.99046606361321L270.61165613677537,86.60214263408557L271.04169299139494,85.3119504106154L271.901766700634,86.72970857357757L272.3318035552536,83.87471096493783L274.912024682971,95.11640078255891L275.7720983922101,85.67224996286797L277.4922458106884,87.205801953307L281.79261435688403,82.70724040477648L283.08272492074275,87.16538089612209L283.9427986299819,84.25193943933613L285.6629460484601,86.74710629664435L286.74021008831517,85.78710618850289L287.17024694293474,85.45759123005996L290.1805049252717,84.14182331190199L292.3306891983695,80.03616902412625L292.76072605298907,95.72443557704264L296.63105774456517,90.86114691200606L299.21127887228255,87.86306084449137L299.6413157269021,84.48363127227225L301.7914999999999,99.71533781716585L302.6515737092391,90.39370030481882L304.37172112771736,93.23301912710207L305.23179483695645,93.28641034310016L306.0918685461956,90.7687931305772L306.52190540081517,85.49165743031631L307.59916944067027,86.32997765497333L308.0292062952898,84.39539252114952L308.8892800045289,82.81110585326451L309.7493537137681,89.41156237540991L310.6094274230072,82.63952471619353L311.03946427762673,86.02765314994605L314.47975911458326,87.5893852846338L315.769869678442,86.01150556266856L318.78012766077893,85.64313221677725L319.2101645153985,86.26840846735405L319.6402013700181,88.40614066692672L321.7903856431159,86.67308784012403L323.5105330615941,81.90892452537469L325.2306804800724,85.06984077943576L325.660717334692,89.48521620899169L326.52079104393107,85.79377357937875L329.31820250226446,82.06482687608911L332.3284604846014,87.94786172219375L333.61857104846007,89.42000079198715L334.0486079030797,87.23366956360843L334.4786447576992,83.53727847982987L334.9086816123188,82.06170153661606L337.91893959465574,83.05264250554075L339.2090501585144,78.16455948068466L340.4991607223731,85.6090660165209L341.35923443161226,82.7436506096376L342.21930814085135,85.31122116473841L342.649344995471,89.82244033813475L345.2295661231883,84.35070016668476L346.5196766870471,86.24142636990325L347.3797503962862,88.59220254355614L348.2398241055253,89.0214679201809L349.09989781476446,83.63812276682722L349.9599715240036,87.73815144355143L351.8973092730978,86.76882740598205L352.3273461277173,86.23173781753678L353.18741983695645,84.5360327974372L354.0474935461956,95.17291733803006L356.19767781929346,84.95936002906308L358.34786209239127,121.96853620021716L361.3581200747282,85.80382675468377L361.78815692934774,85.23319185589429L363.0782674932065,85.48165634400254L365.22845176630426,83.9598764655787L365.6584886209239,87.84680907923149L369.9588571671195,90.40489943793062L372.1090414402173,89.13970993024492L372.5390782948369,89.72946148881124L374.04637918931155,86.80471672093103L374.90645289855064,86.36159567264247L377.0566371716485,87.82706735156L377.486674026268,79.0267885523105L377.91671088088765,88.42114229639736L378.34674773550717,82.09587191485485L379.2068214447463,85.18948919226273L380.06689515398546,92.21874229011189L380.92696886322454,88.30217104045624L381.3570057178442,85.38706273595125L383.5071899909419,87.37962291700029L385.6573742640398,93.07404352590578L386.94748482789845,86.5812549486073L387.3775216825181,90.1053877384291L389.52770595561594,82.65457843465543L389.95774281023546,90.62591302766714L390.8178165194746,89.61726180172843L391.6778902287137,81.84891800749193L393.8280745018115,87.95348733324528L394.2581113564311,86.37956637461252L394.475301687047,85.93764337312194L395.33537539628617,88.0109935795495L396.1954491055253,86.56255500076014L397.05552281476446,88.51167296313366L398.3456333786232,91.40375793352041L398.7756702332427,91.10044373765999L401.3558913609601,85.4776454916788L401.7859282155797,86.18912902272075L402.64600192481873,86.02463198845538L403.50607563405794,89.02724979820601L404.3661493432971,85.85596783489268L408.2364810348731,87.84180853607461L409.09655474411227,86.23632164876398L409.52659159873184,88.6333528466181L410.386665307971,88.13006901347313L414.256996999547,87.20918773773616L414.6870338541666,89.9202634636415L415.9771444180253,87.75971628591554L418.3445190217391,82.72245039021203L420.9247401494564,96.63823274997401L421.354777004076,99.86639589169704L421.7848138586956,87.79805378345179L422.2148507133152,93.06008367625947L423.07492442255426,83.34465339030697L423.9349981317934,86.36831515250952L425.65514555027164,84.04795894972773L426.5152192595108,80.5331500893339L427.8053298233695,92.33745310109691L428.66540353260865,92.15925666214127L432.1056983695652,91.2611903645577L435.11595635190207,91.99851003524361L436.4060669157608,83.63687263103805L437.26614062499993,88.7455525337009L438.34340466485503,86.47379535972527L440.06355208333326,84.55150322782885L440.9236257925724,86.42425872907728L441.3536626471919,82.14650241431843L442.21373635643107,84.31100835537688L443.5038469202898,87.09740476258304L446.9441417572463,83.67698115427561L447.37417861186583,87.10907269661578L449.0943260303441,94.55118313885612L452.5346208673007,89.83035786479991L452.9646577219202,91.2161333871544L453.39469457653985,81.87730650770555L453.82473143115936,92.24463051874704L454.6848051403985,85.70407633650194L455.9749157042572,81.13535091680126L456.40495255887674,85.72043227974427L460.49247458106873,93.90345653306457L461.78258514492745,93.95476418941394L462.2126219995471,79.93949185642629L464.79284312726446,104.38917882114379L465.222879981884,92.43949543489231L466.94302740036227,90.81306877311215L468.233137964221,93.38235826492308L468.6631748188405,90.0189200130078L469.52324852807965,92.93496591935468L470.3833222373188,100.07532483547106L470.81335909193837,93.39168219435106L473.8236170742753,86.25361519384819L474.2536539288949,90.49449250282498L474.6836907835144,84.24443862460078L475.11372763813404,98.79351893958699L475.9738013473731,85.37466555604146L476.83387505661227,86.64975197205854L477.6939487658514,90.41896346555939L478.12398562047093,88.39801478429672L478.5540224750905,89.59481144651357L478.9840593297101,79.21186073810685L481.3514339334239,91.08497330726834L481.7814707880434,88.49896324927653L482.211507642663,86.78023489505875L483.0715813519021,98.20282977917873L487.3719498980978,99.1423068247804L488.2320236073369,88.01484816489966L488.66206046195646,82.4875811288116L489.52213417119555,88.00213845104258L492.102355298913,87.25424471513941L493.3924658627717,100.70768518885342L495.11261328124993,94.93820434360333L496.4027238451086,87.02984534097374L497.6928344089673,94.10873924745334L499.8430186820651,82.87705051614608L500.27305553668475,85.63479797818246L500.70309239130427,90.88286802134382L501.993202955163,94.62962915962993L502.85327666440213,94.11853197780226L506.080724977355,94.50451140272509L506.9407986865941,87.66053884663711L507.8008723958333,105.171086668312L511.24116723278985,97.50733756844056L513.3913515058875,95.18047024175661L514.2514252151267,88.36702183452223L515.5415357789855,91.98626912230748L515.9715726336051,91.03772859223392L516.8316463428441,90.29322064075996L517.2616831974638,83.05519486611041L517.6917200520833,87.38842595651613L519.4118674705614,102.61221497474463L521.1320148890399,95.29027383524345L522.852162307518,102.5805448680843L523.2821991621377,87.75768481525807L524.1422728713767,87.27455942171429L525.6495737658513,90.10054346224587L526.0796106204709,88.15017536408311L528.2297948935689,82.2651611363122L529.0898686028079,85.30965849500183L529.5199054574275,85.749081224914L533.8202740036231,98.83341910685971L534.6803477128623,88.62168491258535L536.4004951313404,90.30395097295076L536.8305319859601,88.14267454934776L538.1206425498187,101.49714593974824L538.5506794044384,97.82976842407788L540.2708268229167,92.98554432982701L540.7008636775362,83.68479450295825L542.851047950634,83.28631372014314L545.4312690783514,100.23075838526455L546.5085331182065,98.53474083121762L547.3686068274455,98.09844344077857L550.3788648097825,87.04536786035663L552.0990122282608,74.08562684540357L552.9590859374999,87.27518448960893L553.8191596467391,91.9768410148971L554.6792333559782,103.72738818772342L556.3993807744564,100.29196294994534L557.2594544836955,88.46312602331881L557.6894913383152,111.20215842745722L559.4096387567935,86.97973573142235L559.839675611413,88.9301559185763L560.6997493206521,96.52087625276062L561.1297861752716,90.3198902042634L562.4198967391303,100.18502425097546L562.8499335937499,101.18914373467823L564.5700810122282,85.23444199168358L565.8601915760869,86.1400091040025L567.1503021399456,86.26413717007415L568.6576030344202,87.40025015752252L569.9477135982789,84.99962481927435L570.3777504528986,86.28174324910577L570.8077873075181,106.60723224517403L573.3880084352354,84.65224333684381L577.2583401268115,85.78023044166218L579.8385612545289,83.02388938238863L581.9887455276267,86.99911283615535L582.8488192368659,85.3304940914889L583.2788560914854,90.21935845121328L584.5689666553442,87.38128976471927L584.9990035099637,89.12543754665131L585.8590772192028,99.9145782085734L586.2891140738224,94.68541646922404L588.0092614923007,85.79783652069375L588.4392983469203,85.79200255367738L589.729408910779,83.97347169228652L590.3766360960144,86.60459081667278L590.806672950634,86.73783445620757L592.0967835144927,89.14715865598907L592.5268203691122,84.31168551226278L593.816930932971,94.41517878278677L594.2469677875905,93.42731106434394L595.5370783514493,86.52338407936446L596.8271889153079,83.46372882423054L597.687262624547,98.29221448810824L599.8374468976449,86.26580401779313L600.697520606884,82.99138585186881L601.5575943161232,93.65150208254477L604.1378154438405,86.07145999156012L608.8682208446558,86.75346115357286L610.1583314085144,104.43605891323966L611.0184051177536,84.2917354286264L611.4484419723731,89.1112172520489L614.675890285326,84.46810875288935L617.2561114130434,95.21536986587245L618.1161851222826,89.31389551687676L621.9865168138587,81.72484203041148L622.4165536684782,90.57299061258999L623.2766273777173,95.71146541822941L624.9967747961956,88.73773918501826L626.7169222146739,96.97238362863527L627.1469590692934,84.84596229518229L627.5769959239129,84.86539148890648L628.4370696331521,79.78510008645713L628.8671064877716,91.57674547335426L629.7271801970107,89.33072026104014L631.0172907608695,107.98816349134535L631.447327615489,81.14274755355416L632.3074013247282,85.48327110273027L633.8147022192028,88.75409512826064L635.9648864923006,84.47107782538876L639.8352181838767,85.71079581636906L640.2652550384963,89.68284184167146L641.1253287477354,93.89194486600542L641.555365602355,85.80200363999114L646.2857710031702,99.72434921264647L647.1458447124093,93.50492366125826L648.0059184216485,83.56816725162196L648.8659921308877,90.2000334354716L650.1561026947463,91.81713616782372L651.446213258605,87.9783858710473L651.8762501132245,80.41381421045429L652.3062869678441,97.96832514071684L654.8865080955616,99.7266411282601L655.1036984261775,91.93345088521272L655.533735280797,91.43136509886574L658.1139564085144,96.32387568797543L659.8341038269926,95.03529822323304L660.6941775362318,97.05192351822461L663.2743986639492,102.814528616634L664.1344723731884,92.2776028501878L665.8546197916666,92.70796209562809L667.1447303555253,93.81761387553786L668.8648777740036,97.17073850719208L671.4450989017209,97.48837717563737L672.7352094655796,98.17188891839544L673.5952831748187,83.93148796536508L676.1755043025362,93.31849716169023L676.8227314877716,103.9211592350531L677.2527683423912,90.61882892486153L677.6828051970108,83.66750095787398L679.8329894701087,94.81777459590808L681.5531368885869,83.00524152353273L682.413210597826,109.45910451434077L682.8432474524456,97.12333752518401L683.2732843070651,86.28591036840317L684.1333580163042,92.96590678013791L684.9934317255434,94.07118308478539L685.423468580163,93.10133815730387L687.1436159986413,107.5888492846708L688.8637634171195,99.32805616746259L690.1538739809781,96.2432419295705L690.5839108355977,81.78859895566188L694.0242056725542,87.44155672755812L695.7443530910325,101.22076175234736L696.1743899456521,84.731991582398L697.0344636548913,98.51885368889629L697.4645005095108,90.17930201696691L699.8318751132246,93.00872393091885L700.2619119678442,80.51570027727604L700.6919488224636,102.1773239870684L704.5622805140398,90.12664004684586L705.422354223279,103.87188304936126L706.282427932518,99.4059812983242L707.1425016417572,104.06518529576994L707.5725384963766,126.77551666574743L708.4326122056159,98.94655639578446L710.1527596240941,90.86099064503242L712.7329807518114,89.09319446108759L713.163017606431,83.50196214378428L713.5930544610507,91.22873892302908L714.0230913156703,95.03988205446018L714.8831650249093,102.1771156311035L715.313201879529,80.40865740032376L716.1732755887681,82.71771029201125L716.6033124433876,107.09264955433139L717.4633861526268,77.878903452847L717.8934230072464,102.7274358233181L718.7534967164854,92.85204024533613L720.0436072803441,91.64289849220069L720.26079761096,86.41029887943097L721.1208713201992,104.411004108464L722.8410187386775,78.08231096355195L724.1311293025361,96.89070809040595L724.5611661571558,105.3594925495463L724.9912030117754,104.20973224639891L725.8512767210144,95.3363725924711L726.7113504302536,95.5317583985285L727.1413872848731,89.66148535527219L728.8615347033515,77.69159144042828L730.5816821218295,78.90333764312464L731.0117189764492,100.38056632400651L733.161903249547,90.5535614188658L733.5919401041666,100.55777307212901L737.0322349411232,107.97107830222592L737.4622717957426,83.58874240315288L738.7523823596014,113.72946419234671L739.1824192142209,95.27745994340393L740.4725297780797,91.58596522479979L742.4098675271739,92.43475533669147L743.2699412364129,102.91969628990245L744.1300149456521,111.85972985258888L744.5600518002716,93.67483795061025L746.2801992187499,96.0509293739949L749.290457201087,99.82165144824108L752.3007151834238,104.34021516939919L757.031120584239,101.56506998429609L757.4611574388587,94.56644521328292L757.8911942934782,110.01291466896686L758.7512680027173,84.93842025459361L765.4190111526268,113.28457211835666L765.8490480072462,83.24214225559064L766.2790848618658,88.3282676250563L766.7091217164855,114.95308668504072L767.1391585711051,107.49534954543509L767.5691954257245,93.13915476492787L767.9992322803441,89.7172205758751L769.2893428442028,96.29866461622606L770.1494165534419,97.49129415914553L770.5794534080616,112.91192747518556L773.5897113903985,106.62968260038883L775.3098588088767,85.94087289057745L775.7398956634963,96.85935051769297L776.1699325181158,111.94302014954593L777.030006227355,97.54379986229293L777.8900799365942,103.73853523184403L778.3201167912136,108.76809195684729L780.0402642096919,88.71096544353242L780.4703010643116,95.32908013370064L780.9003379189311,101.44693215221446L781.3303747735506,100.88832981039627L782.6204853374094,84.55093024892545L783.4805590466484,103.35015971332518L784.3406327558877,116.5693559935334L784.7706696105071,87.69668860654218L785.4178967957426,97.10718993790653L786.2779705049817,104.68561727016345L786.7080073596013,94.94476755649674L787.5680810688405,111.283000541827L788.4281547780796,100.36582513949196L789.7182653419384,92.95278035435109L791.4384127604167,93.81745760856421L792.2984864696557,96.44315947786384L793.1585601788948,109.77445126717242L796.5988550158514,87.97739618021416L797.8889655797101,85.64255923787385L798.7490392889491,95.26672961121307L799.1790761435688,73.85143474088898L800.4691867074274,102.09043954971736L801.3292604166666,90.42688099222448L801.7592972712862,97.63130936753862L802.1893341259058,113.06480866440938L803.0494078351448,92.37490508578242L807.5669667119565,101.78332285749804L811.0072615489129,113.79806539378035L811.8673352581521,97.62667344732023L813.1574458220108,90.5576243601808L814.01751953125,89.54970238011913L817.4578143682064,96.22990714781878L819.6079986413043,116.86933649395587L820.0380354959239,87.97994854078382L821.3281460597826,100.52214420213613L822.1882197690217,91.3285935191933L823.9083671875,96.3869033673488L824.3384040421195,93.53451020826986L827.3486620244564,90.95245891361066L828.2087357336954,99.474374143793L828.855962918931,90.74160267716155L829.7160366281702,113.8321315940367L830.1460734827897,89.90692868188984L830.5761103374093,92.09227021943542L832.2962577558876,89.21357211979159L834.4464420289854,89.59908274379347L834.876478883605,103.10659159039142L835.7365525928441,102.58611839014458L836.5966263020832,96.95008954039406L837.8867368659419,98.25361654561596L838.7468105751811,91.00715235438918L839.1768474298005,97.05780957423224L840.4669579936594,117.89632304480318L841.7570685575181,104.81854837575088L843.0471791213768,87.29112372092152L845.1973633944746,93.60967462259697L846.4874739583332,97.44660180468082L848.637658231431,104.54466445992847L850.3578056499093,98.03411353662477L851.8651065443839,94.75651794223614L852.2951433990036,81.49080619287054L852.7251802536232,104.2559872706002L853.1552171082426,84.75313971283242L855.73543823596,96.37502707735115L857.885622509058,105.33537534661252L860.8958804913948,91.90641669877078L861.7559542006339,91.38875630404976L864.766212182971,100.49120334135284L868.6365438745471,94.17614240208894L869.4966175837861,102.28358552915239L871.2167650022644,91.09585990643279L872.0768387115035,103.52059489258932L874.0141764605978,105.14191683323014L874.4442133152173,78.80384766989891L880.4647292798912,110.59928044310402L881.3248029891303,112.07636796706316L883.9050241168478,97.73585197291243L884.3350609714672,106.03607645647241L884.7650978260868,87.62178463717123L887.7753558084239,102.83869790855897L891.6456874999999,93.98127748594374L894.0130621037137,103.74775498328955L894.4430989583333,101.59627129003542L897.8833937952897,91.13185339936422L898.7434675045289,91.71894841937848L900.0335780683877,95.11108770545468L900.4636149230071,108.60864755473006L901.3236886322463,99.70080498861608L903.4738729053441,86.00692173144142L905.6240571784421,105.18489025098467L907.3442045969201,102.46360508280065L908.6343151607789,100.18450336106326L909.494388870018,101.84739231669579L910.7844994338768,97.3723229032044L912.0746099977355,93.51877933292218L913.7947574162138,92.7978676944698L915.514904834692,99.24315111177776L916.1621320199274,103.47392315645834L916.592168874547,98.94520208201277L917.4522425837862,93.69921559850007L921.7526111299818,98.25106418504629L923.0427216938406,98.80195735616422L923.47275854846,112.06126215961007L924.3328322576992,110.0819325823303L926.4830165307969,94.23026286396413L929.493274513134,86.99046606361321L930.353348222373,99.77706327175872L931.6434587862317,103.00022587032498L932.9335693500905,97.96926274255878L933.36360620471,114.62138398896667L934.6537167685688,108.16323459082787L935.9438273324274,130.04191312702426L937.2339378962861,104.44142407933504L938.3112019361413,103.42678261940631L939.1712756453803,88.13465284470027L939.6013125,104.11868068975048L940.0313493546195,104.60217070623276L940.8914230638586,103.09976793254191L944.3317179008151,92.61092030498963L944.7617547554347,105.86741230290966L945.1917916100542,86.0797942301549L945.6218284646737,96.76902820692152L947.7720127377717,81.95335643488335L948.2020495923912,100.36400202479933L948.6320864470108,113.84119507850858L949.4921601562498,116.66874178877663L950.3522338654891,104.02356619178704L950.7822707201085,103.5895086279703L951.2123075747281,104.8091723573317L951.6423444293478,97.80841193767867L952.0723812839673,103.75791233657696L952.5024181385869,94.8611126366012L953.7925287024456,104.32203611146423L954.6526024116846,95.91075789862816L955.5126761209239,105.66660924176557L958.0928972486412,115.0670573978249L958.5229341032608,106.24266139564168L959.1701612884963,95.80246488588665L959.6001981431159,86.80216436036136L960.0302349977354,101.28628970329913L960.4602718523549,110.45301455576487L960.8903087069746,89.11965566862614L962.6104561254529,101.72347260658893L964.7606403985507,113.32738926913765L967.7708983808876,101.10449912394955L968.6309720901266,92.23468152142448L969.9210826539854,87.41504343102832L971.2111932178441,108.71605505462088L971.6412300724637,92.7792719246051L972.0712669270833,95.26297920384536L973.361377490942,119.47003564747104L975.0815249094202,108.96821786110553L981.7492680593297,109.2112130051359L982.6093417685687,115.6466516031038L983.4694154778078,83.53238211465538L985.1895628962861,102.22696479569885L986.4796734601448,94.89007411571822L987.3397471693839,99.79998242789452L989.9199682971014,106.68630333384243L991.2100788609602,99.19147883248985L991.6401157155796,109.89295372219266L992.9302262794382,99.7039303280892L993.3602631340578,96.42367819514845L994.6503736979165,101.899377129931L995.9404842617753,101.51636677750753L996.3705211163949,104.59701389610223L999.3807790987319,74.52254930373726L999.8108159533513,100.08615934564438L1001.10092651721,88.96745163628816L1001.5309633718297,106.12509654246344L1001.9610002264492,106.96440645795349L1003.0382642663043,92.75291489504895L1003.8983379755433,94.50024010544524L1004.7584116847826,98.08182705258014L1005.188448539402,90.41250443064843L1006.0485222486412,97.34023608461433L1007.7686696671194,91.64003359768373L1008.198706521739,105.87501729562746L1009.9188539402173,92.27624853641618L1011.208964504076,89.627210799051L1013.3591487771738,116.1738963722089L1014.219222486413,113.34426610229212L1015.0792961956521,95.44700960981737L1015.9393699048911,84.19891284627653L1018.5195910326086,99.05318256080699L1020.6697753057065,96.35033689551398L1023.2499964334238,108.488738696947L1023.6800332880434,101.61611719568936L1025.187334182518,112.93984717447825L1028.6276290194746,109.84143770987833L1029.9177395833333,91.89959304092127L1030.7778132925725,110.90577206742876L1032.9279975656702,96.45269176325667L1034.218108129529,90.18904265832464L1037.2283661118659,91.56856750173307L1037.6584029664853,83.04133919444655L1043.2488820765398,124.0014132604687L1045.829103204257,93.22072612517474L1046.9063672441123,87.74049544815625L1049.4865883718296,94.84199597682431L1050.7766989356883,105.55737862718217L1053.3569200634058,93.88345436043699L1054.6470306272645,97.49369025274154L1055.0770674818841,92.95314497728964L1055.5071043365035,93.58712008939972L1057.6572886096014,96.97686328187996L1058.5173623188405,91.66821374193245L1060.2375097373188,94.83235951344903L1062.3876940104165,96.21714534497039L1064.967915138134,89.39187273672962L1065.3979519927536,99.97703290904337L1065.827988847373,83.33756928750137L1067.118099411232,98.53182384770946L1067.5481362658513,95.93258318594837L1067.7653265964673,153.19338616362407L1068.195363451087,92.45324692857378L1070.3455477241846,89.33676258402136L1075.0759531249998,97.08374989185859L1075.9360268342389,98.58464208480416L1076.3660636888585,99.7947735287728L1077.2261373980978,90.4750112201096L1079.3763216711957,99.83696561165908L1079.806358525815,94.73187984939017L1080.6664322350543,82.40897884106414L1084.5367639266303,87.51656487491158L1084.96680078125,94.35751626950884L1085.3968376358694,154.17187786364778L1089.2671693274456,98.14558397783054L1092.4946176403985,106.13317033610213L1092.924654495018,106.17437272815533L1093.3546913496377,85.32028464921024L1095.5048756227354,114.27832589280717L1099.3752073143114,93.02726761179235L1100.2352810235507,85.28955214439185L1100.66531787817,88.72065399589889L1103.2455390058876,86.84503360013349L1103.6755758605073,95.72365424217435L1104.5356495697463,99.36108058789455L1104.965686424366,93.07018894055568L1105.825760133605,104.93199819862298L1106.6858338428442,127.86094706474094L1107.5459075520832,108.32392912873433L1109.2660549705615,103.98225962175144L1110.1261286798006,116.93324968617992L1110.5561655344202,108.34684828487013L1111.6334295742752,111.41051439232785L1112.0634664288948,93.76693128708308L1112.4935032835144,103.57257970582458L1113.3535769927535,116.30828596955047L1114.6436875566123,104.84068619701844L1115.933798120471,90.44261186757217L1118.944056102808,105.09092171082807L1121.9543140851447,84.40018470834156L1123.2444246490033,99.16303824328503L1124.1044983582426,93.29484875967745L1124.5345352128622,112.21414334883383L1125.3946089221013,113.72097368677822L1127.1147563405796,97.07479058536916L1127.9748300498188,105.24640734961275L1128.8349037590579,107.62395726475148L1129.694977468297,89.85952769988177L1130.1250143229165,96.13948065906493L1132.2751985960144,102.99585039506269L1134.2125363451084,94.7786036745124L1135.0726100543477,97.79757742750536L1135.502646908967,88.3508221582535L1138.0828680366847,102.00042977289326L1138.5129048913043,89.50855207705717L1140.2330523097826,100.91062389863743L1140.6630891644022,91.51012365358685L1143.6733471467392,114.57367047301125L1147.5436788383151,96.50717684807034L1151.4140105298914,124.63299227898275L1152.2740842391304,105.83376281458305L1153.9942316576087,114.08809689688024L1154.4242685122283,86.77638030970866L1155.931569406703,98.17767079642061L1159.3718642436595,104.47090644836425L1160.2319379528985,105.57623484200298L1161.0920116621376,119.00238068431895L1163.6722327898551,102.053977255865L1167.5425644814313,110.96494516145202L1170.1227856091487,104.90933948744328L1170.552822463768,113.7976486818506L1171.4128961730073,104.11430521448818L1174.8531910099637,83.8692937098512L1176.1433015738223,106.06462122365969L1177.2205656136775,98.76507835038211L1178.0806393229168,105.35079368801297L1179.3707498867755,98.68652815162591L1179.800786741395,112.36176354994467L1180.6608604506341,105.03388426544473L1181.5209341598731,102.54147812467102L1183.671118432971,93.63264586772397L1184.1011552875907,98.19251615891767L1184.53119214221,93.51930022283432L1185.8213027060688,106.60718015618284L1187.1114132699274,89.56803770502773L1187.9714869791667,97.41576512187999L1190.551708106884,91.3321876595873L1191.4117818161233,209.0638818767093L1191.841818670743,102.02584920060747L1193.9920029438406,98.64615918343219L1196.1421872169385,109.11833833379484L1197.0022609261775,88.38551342640449L1197.8623346354166,98.99635347138855L1198.0795249660325,89.05542994245474L1200.2297092391304,98.79398774050793L1203.670004076087,107.65682541820985L1207.9703726222826,101.26743348847839L1208.8304463315217,92.2025947028344L1210.1205568953803,89.02787486610066L1211.410667459239,113.65403933306357L1212.7007780230979,110.57250670161818L1213.560851732337,110.46098417142116L1214.8509622961958,114.69946538680193L1215.7110360054348,100.95875412652254L1216.1410728600545,96.51400050591985L1217.8612202785328,104.95371930796074L1219.7985580276268,98.24377172627578L1221.0886685914854,108.13390848877236L1221.518705446105,104.24108981911195L1222.8088160099637,102.4260489201327L1224.0989265738224,119.33918810153227L1225.389037137681,102.87557691434108L1226.67914770154,103.07565072960813L1228.3992951200182,132.17308211370346L1230.549479393116,115.39375955074206L1230.9795162477355,107.03764357960551L1232.6996636662138,108.49946902913786L1233.9897742300725,111.44697668618022L1235.2798847939312,111.49229410853957L1235.7099216485508,118.07024818647892L1237.4300690670289,106.89830552809832L1238.7201796308877,113.5152742604597L1239.1502164855074,110.73169065877931L1239.5802533401268,98.97760143455014L1241.300400758605,96.78189418775224L1242.8077016530797,97.51686985383344L1243.2377385076993,97.75278089505815L1243.667775362319,96.1265625892429L1244.0978122169383,99.39525096613335L1244.9578859261776,97.67324100546881L1245.387922780797,121.06281282092453L1245.8179596354166,123.85749137773428L1247.9681439085145,97.58859639474014L1249.6882913269928,103.84281739226174L1250.1183281816122,115.4177204867022L1250.9784018908515,95.5724919896607L1253.9886598731885,102.16169728970306L1254.418696727808,123.2406535437348L1255.2787704370471,109.66282455899301L1256.5688810009058,103.35422265464013L1256.9989178555254,100.74185556709222L1257.428954710145,102.63534248684527L1258.289028419384,106.60718015618284L1260.4392126924818,101.62309712051251L1263.0194338201993,102.77884765764992L1263.2366241508153,123.01719177141104L1263.666661005435,92.84641463428466L1264.0966978600543,103.432199874493L1265.3868084239132,114.34406219972385L1267.5369926970109,101.06678669430795L1268.8271032608695,111.82087146514056L1269.2571401154892,122.62147170513052L1273.5575086616848,122.73872402436143L1275.7076929347827,109.31684947932536L1280.8681351902173,118.90242191017222L1281.298172044837,98.64537784856395L1287.1058414855072,94.42794058563516L1288.8259889039855,105.67426632347457L1289.2560257586051,106.92617313839975L1289.6860626132247,102.28556491081866L1290.1160994678444,99.3272227436031L1290.9761731770834,122.60011521873125L1292.266283740942,100.98875738546388L1292.6963205955617,106.5613418439113L1294.4164680140398,90.15143440666549L1295.276541723279,103.49580053276975L1296.996689141757,104.72624668331326L1301.297057687953,106.94200819172988L1302.5871682518116,118.72120430972603L1303.4472419610508,106.10525063680944L1303.8772788156703,122.54026496782217L1304.3073156702899,94.34569206850244L1307.5347639832428,116.47658550017474L1308.3948376924818,107.34705218743841L1313.1252430932973,119.19886035919188L1314.415353657156,114.6639927837827L1316.5655379302536,105.27000366263434L1317.4256116394927,103.67175714510296L1317.8556484941123,123.53506052209698L1318.285685348732,120.1092196587029L1320.0058327672102,111.55526969892168L1322.5860538949275,110.72700264956978L1325.166275022645,127.77984450541507L1326.0263487318841,102.12226592335134L1328.1765330049818,86.07182461449861L1328.3937233355978,116.04773683547972L1328.8237601902174,104.86428251004003L1329.6838338994564,100.38186854878694L1330.113870754076,118.04373488994918L1331.8340181725544,125.96886654775076L1332.6940918817934,111.18335430162762L1334.4142393002717,98.96343322893898L1335.7043498641303,105.08701503648672L1339.5746815557065,110.87545627454006L1340.8647921195652,114.06226075723634L1341.7248658288045,100.72174921648218L1342.1549026834239,105.19911054558713L1343.8750501019022,93.42043531750318L1344.3050869565218,110.78242533622534L1345.1651606657608,116.41595391439733L1346.0252343749999,116.21650516702499L1346.885308084239,119.03478003685626L1347.3153449388587,109.37492870453303L1347.7453817934784,128.02617334488335L1349.895566066576,123.5125059888997" style="fill: none;" fill="none"></path></g></g></g></g></g></g><g transform="translate(46, 378)" clip-path="url(#clip_1)"><clipPath id="clip_1"><rect width="1385" height="22"></rect></clipPath><g><g><line x1="25.24739583333333" y1="0" x2="25.24739583333333" y2="5" style="visibility: inherit;" fill="rgb(0, 0, 0)" stroke="rgb(204, 204, 204)" stroke-width="1px"></line><line x1="242.43772644927535" y1="0" x2="242.43772644927535" y2="5" style="visibility: inherit;" fill="rgb(0, 0, 0)" stroke="rgb(204, 204, 204)" stroke-width="1px"></line><line x1="459.6280570652173" y1="0" x2="459.6280570652173" y2="5" style="visibility: inherit;" fill="rgb(0, 0, 0)" stroke="rgb(204, 204, 204)" stroke-width="1px"></line><line x1="676.8183876811593" y1="0" x2="676.8183876811593" y2="5" style="visibility: inherit;" fill="rgb(0, 0, 0)" stroke="rgb(204, 204, 204)" stroke-width="1px"></line><line x1="894.0087182971014" y1="0" x2="894.0087182971014" y2="5" style="visibility: inherit;" fill="rgb(0, 0, 0)" stroke="rgb(204, 204, 204)" stroke-width="1px"></line><line x1="1111.1990489130433" y1="0" x2="1111.1990489130433" y2="5" style="visibility: inherit;" fill="rgb(0, 0, 0)" stroke="rgb(204, 204, 204)" stroke-width="1px"></line><line x1="1328.3893795289855" y1="0" x2="1328.3893795289855" y2="5" style="visibility: inherit;" fill="rgb(0, 0, 0)" stroke="rgb(204, 204, 204)" stroke-width="1px"></line></g><g transform="translate(0, 8)"><text x="25.24739583333333" y="0" dx="0em" dy="0.95em" style="text-anchor: middle; visibility: inherit; font-family: &quot;Helvetica Neue&quot;, sans-serif; font-size: 12px; font-weight: 200;" fill="rgb(50, 49, 63)" stroke="none" stroke-width="1px">0</text><text x="242.43772644927535" y="0" dx="0em" dy="0.95em" style="text-anchor: middle; visibility: inherit; font-family: &quot;Helvetica Neue&quot;, sans-serif; font-size: 12px; font-weight: 200;" fill="rgb(50, 49, 63)" stroke="none" stroke-width="1px">50k</text><text x="459.6280570652173" y="0" dx="0em" dy="0.95em" style="text-anchor: middle; visibility: inherit; font-family: &quot;Helvetica Neue&quot;, sans-serif; font-size: 12px; font-weight: 200;" fill="rgb(50, 49, 63)" stroke="none" stroke-width="1px">100k</text><text x="676.8183876811593" y="0" dx="0em" dy="0.95em" style="text-anchor: middle; visibility: inherit; font-family: &quot;Helvetica Neue&quot;, sans-serif; font-size: 12px; font-weight: 200;" fill="rgb(50, 49, 63)" stroke="none" stroke-width="1px">150k</text><text x="894.0087182971014" y="0" dx="0em" dy="0.95em" style="text-anchor: middle; visibility: inherit; font-family: &quot;Helvetica Neue&quot;, sans-serif; font-size: 12px; font-weight: 200;" fill="rgb(50, 49, 63)" stroke="none" stroke-width="1px">200k</text><text x="1111.1990489130433" y="0" dx="0em" dy="0.95em" style="text-anchor: middle; visibility: inherit; font-family: &quot;Helvetica Neue&quot;, sans-serif; font-size: 12px; font-weight: 200;" fill="rgb(50, 49, 63)" stroke="none" stroke-width="1px">250k</text><text x="1328.3893795289855" y="0" dx="0em" dy="0.95em" style="text-anchor: middle; visibility: inherit; font-family: &quot;Helvetica Neue&quot;, sans-serif; font-size: 12px; font-weight: 200;" fill="rgb(50, 49, 63)" stroke="none" stroke-width="1px">300k</text></g><line x1="0" y1="0" x2="1385" y2="0" fill="rgb(0, 0, 0)" stroke="rgb(204, 204, 204)" stroke-width="1px"></line></g></g></g></g></svg>